<svg xmlns="http://www.w3.org/2000/svg" width="428" height="71" viewBox="0 0 428 71" fill="none"><path d="M92.2168 30.9512V56H83.0762V24.3008H91.6602L92.2168 30.9512ZM91.0449 39.0371L88.7305 39.0957C88.7305 36.8691 88.9941 34.8281 89.5215 32.9727C90.0684 31.0977 90.8594 29.4668 91.8945 28.0801C92.9297 26.6934 94.209 25.6191 95.7324 24.8574C97.2754 24.0957 99.0527 23.7148 101.064 23.7148C102.471 23.7148 103.75 23.9297 104.902 24.3594C106.055 24.7695 107.041 25.4238 107.861 26.3223C108.701 27.2012 109.346 28.3535 109.795 29.7793C110.244 31.1855 110.469 32.875 110.469 34.8477V56H101.328V35.9609C101.328 34.5547 101.152 33.4902 100.801 32.7676C100.469 32.0254 99.9805 31.5176 99.3359 31.2441C98.6914 30.9707 97.9199 30.834 97.0215 30.834C96.0449 30.834 95.1758 31.0488 94.4141 31.4785C93.6719 31.8887 93.0469 32.4648 92.5391 33.207C92.0312 33.9492 91.6504 34.8184 91.3965 35.8145C91.1621 36.8105 91.0449 37.8848 91.0449 39.0371ZM109.531 38.5684L106.631 38.8027C106.631 36.6543 106.885 34.6621 107.393 32.8262C107.9 30.9902 108.662 29.3984 109.678 28.0508C110.693 26.6836 111.953 25.6191 113.457 24.8574C114.98 24.0957 116.748 23.7148 118.76 23.7148C120.244 23.7148 121.592 23.9297 122.803 24.3594C124.033 24.7891 125.088 25.4824 125.967 26.4395C126.865 27.3965 127.559 28.6562 128.047 30.2188C128.535 31.7617 128.779 33.6562 128.779 35.9023V56H119.58V35.9023C119.58 34.5156 119.404 33.4609 119.053 32.7383C118.721 32.0156 118.232 31.5176 117.588 31.2441C116.963 30.9707 116.211 30.834 115.332 30.834C114.355 30.834 113.506 31.0391 112.783 31.4492C112.061 31.8398 111.455 32.3867 110.967 33.0898C110.479 33.7734 110.117 34.584 109.883 35.5215C109.648 36.459 109.531 37.4746 109.531 38.5684ZM149.844 56.5859C147.324 56.5859 145.068 56.1855 143.076 55.3848C141.084 54.584 139.395 53.4805 138.008 52.0742C136.641 50.6484 135.596 49.0078 134.873 47.1523C134.15 45.2969 133.789 43.3145 133.789 41.2051V40.0918C133.789 37.7285 134.121 35.5508 134.785 33.5586C135.449 31.5664 136.416 29.8379 137.686 28.373C138.975 26.8887 140.557 25.7461 142.432 24.9453C144.307 24.125 146.445 23.7148 148.848 23.7148C151.094 23.7148 153.096 24.0859 154.854 24.8281C156.611 25.5508 158.096 26.5957 159.307 27.9629C160.518 29.3105 161.436 30.9414 162.061 32.8555C162.705 34.75 163.027 36.8789 163.027 39.2422V42.9922H137.48V37.1035H154.062V36.4004C154.062 35.2871 153.857 34.3105 153.447 33.4707C153.057 32.6309 152.471 31.9863 151.689 31.5371C150.928 31.0684 149.961 30.834 148.789 30.834C147.676 30.834 146.748 31.0684 146.006 31.5371C145.264 32.0059 144.668 32.6699 144.219 33.5293C143.789 34.3691 143.477 35.3555 143.281 36.4883C143.086 37.6016 142.988 38.8027 142.988 40.0918V41.2051C142.988 42.4355 143.154 43.5586 143.486 44.5742C143.818 45.5898 144.307 46.459 144.951 47.1816C145.596 47.9043 146.377 48.4707 147.295 48.8809C148.213 49.291 149.258 49.4961 150.43 49.4961C151.875 49.4961 153.252 49.2227 154.561 48.6758C155.869 48.1094 157.002 47.2305 157.959 46.0391L162.236 50.9316C161.592 51.8691 160.684 52.7773 159.512 53.6562C158.359 54.5156 156.973 55.2188 155.352 55.7656C153.73 56.3125 151.895 56.5859 149.844 56.5859ZM180.723 49.4668C181.699 49.4668 182.549 49.2812 183.271 48.9102C183.994 48.5391 184.551 48.0215 184.941 47.3574C185.352 46.6738 185.557 45.8535 185.557 44.8965H194.17C194.17 47.2012 193.574 49.2324 192.383 50.9902C191.211 52.748 189.629 54.125 187.637 55.1211C185.645 56.0977 183.398 56.5859 180.898 56.5859C178.438 56.5859 176.289 56.1855 174.453 55.3848C172.617 54.5645 171.084 53.4219 169.854 51.957C168.623 50.4922 167.695 48.793 167.07 46.8594C166.465 44.9062 166.162 42.7969 166.162 40.5312V39.7695C166.162 37.5234 166.465 35.4238 167.07 33.4707C167.695 31.5176 168.623 29.8086 169.854 28.3438C171.084 26.8789 172.607 25.7461 174.424 24.9453C176.26 24.125 178.408 23.7148 180.869 23.7148C183.467 23.7148 185.762 24.2129 187.754 25.209C189.766 26.2051 191.338 27.6406 192.471 29.5156C193.604 31.3711 194.17 33.6074 194.17 36.2246H185.557C185.557 35.209 185.371 34.3008 185 33.5C184.648 32.6797 184.102 32.0352 183.359 31.5664C182.637 31.0781 181.738 30.834 180.664 30.834C179.551 30.834 178.633 31.0781 177.91 31.5664C177.207 32.0352 176.67 32.6895 176.299 33.5293C175.928 34.3691 175.674 35.3262 175.537 36.4004C175.4 37.4551 175.332 38.5781 175.332 39.7695V40.5312C175.332 41.7422 175.4 42.8945 175.537 43.9883C175.674 45.0625 175.928 46.0098 176.299 46.8301C176.689 47.6504 177.236 48.2949 177.939 48.7637C178.643 49.2324 179.57 49.4668 180.723 49.4668ZM215.498 48.4414V34.8477C215.498 33.8906 215.352 33.0703 215.059 32.3867C214.766 31.7031 214.307 31.166 213.682 30.7754C213.057 30.3848 212.246 30.1895 211.25 30.1895C210.41 30.1895 209.678 30.3359 209.053 30.6289C208.447 30.9219 207.979 31.3418 207.646 31.8887C207.334 32.4355 207.178 33.1094 207.178 33.9102H198.037C198.037 32.4844 198.359 31.1562 199.004 29.9258C199.648 28.6953 200.566 27.6113 201.758 26.6738C202.969 25.7363 204.414 25.0137 206.094 24.5059C207.773 23.9785 209.658 23.7148 211.748 23.7148C214.229 23.7148 216.436 24.1348 218.369 24.9746C220.322 25.7949 221.865 27.0352 222.998 28.6953C224.131 30.3359 224.697 32.4062 224.697 34.9062V48.1777C224.697 50.0918 224.805 51.5957 225.02 52.6895C225.254 53.7637 225.586 54.7012 226.016 55.502V56H216.787C216.357 55.082 216.035 53.9492 215.82 52.6016C215.605 51.2344 215.498 49.8477 215.498 48.4414ZM216.641 36.6641L216.699 41.7031H212.158C211.143 41.7031 210.264 41.8301 209.521 42.084C208.799 42.3379 208.213 42.6895 207.764 43.1387C207.314 43.5684 206.982 44.0762 206.768 44.6621C206.572 45.2285 206.475 45.8535 206.475 46.5371C206.475 47.1816 206.631 47.7676 206.943 48.2949C207.256 48.8027 207.686 49.2031 208.232 49.4961C208.779 49.7891 209.414 49.9355 210.137 49.9355C211.328 49.9355 212.344 49.7012 213.184 49.2324C214.043 48.7637 214.707 48.1973 215.176 47.5332C215.645 46.8496 215.879 46.2148 215.879 45.6289L218.076 49.4375C217.725 50.2188 217.295 51.0293 216.787 51.8691C216.279 52.6895 215.635 53.4609 214.854 54.1836C214.072 54.8867 213.125 55.4629 212.012 55.9121C210.918 56.3613 209.6 56.5859 208.057 56.5859C206.064 56.5859 204.258 56.1855 202.637 55.3848C201.016 54.5645 199.717 53.4414 198.74 52.0156C197.783 50.5898 197.305 48.9492 197.305 47.0938C197.305 45.4336 197.607 43.959 198.213 42.6699C198.818 41.3809 199.727 40.2871 200.938 39.3887C202.168 38.4902 203.711 37.8164 205.566 37.3672C207.422 36.8984 209.59 36.6641 212.07 36.6641H216.641ZM239.668 31.0684V56H230.498V24.3008H239.111L239.668 31.0684ZM238.467 39.0371L236.182 39.0957C236.182 36.7129 236.475 34.5742 237.061 32.6797C237.646 30.7852 238.477 29.1738 239.551 27.8457C240.645 26.498 241.943 25.4727 243.447 24.7695C244.971 24.0664 246.65 23.7148 248.486 23.7148C249.971 23.7148 251.328 23.9297 252.559 24.3594C253.789 24.7891 254.844 25.4824 255.723 26.4395C256.621 27.377 257.305 28.627 257.773 30.1895C258.242 31.7324 258.477 33.6367 258.477 35.9023V56H249.277V35.873C249.277 34.5449 249.092 33.5195 248.721 32.7969C248.35 32.0742 247.803 31.5664 247.08 31.2734C246.377 30.9805 245.518 30.834 244.502 30.834C243.428 30.834 242.51 31.0488 241.748 31.4785C240.986 31.8887 240.361 32.4648 239.873 33.207C239.385 33.9492 239.023 34.8184 238.789 35.8145C238.574 36.8105 238.467 37.8848 238.467 39.0371ZM274.092 24.3008V56H264.922V24.3008H274.092ZM264.365 16.0977C264.365 14.7695 264.834 13.6855 265.771 12.8457C266.709 11.9863 267.939 11.5566 269.463 11.5566C270.986 11.5566 272.217 11.9863 273.154 12.8457C274.111 13.6855 274.59 14.7695 274.59 16.0977C274.59 17.4063 274.111 18.4902 273.154 19.3496C272.217 20.1895 270.986 20.6094 269.463 20.6094C267.939 20.6094 266.709 20.1895 265.771 19.3496C264.834 18.4902 264.365 17.4063 264.365 16.0977ZM289.854 30.9512V56H280.713V24.3008H289.297L289.854 30.9512ZM288.682 39.0371L286.367 39.0957C286.367 36.8691 286.631 34.8281 287.158 32.9727C287.705 31.0977 288.496 29.4668 289.531 28.0801C290.566 26.6934 291.846 25.6191 293.369 24.8574C294.912 24.0957 296.689 23.7148 298.701 23.7148C300.107 23.7148 301.387 23.9297 302.539 24.3594C303.691 24.7695 304.678 25.4238 305.498 26.3223C306.338 27.2012 306.982 28.3535 307.432 29.7793C307.881 31.1855 308.105 32.875 308.105 34.8477V56H298.965V35.9609C298.965 34.5547 298.789 33.4902 298.438 32.7676C298.105 32.0254 297.617 31.5176 296.973 31.2441C296.328 30.9707 295.557 30.834 294.658 30.834C293.682 30.834 292.812 31.0488 292.051 31.4785C291.309 31.8887 290.684 32.4648 290.176 33.207C289.668 33.9492 289.287 34.8184 289.033 35.8145C288.799 36.8105 288.682 37.8848 288.682 39.0371ZM307.168 38.5684L304.268 38.8027C304.268 36.6543 304.521 34.6621 305.029 32.8262C305.537 30.9902 306.299 29.3984 307.314 28.0508C308.33 26.6836 309.59 25.6191 311.094 24.8574C312.617 24.0957 314.385 23.7148 316.396 23.7148C317.881 23.7148 319.229 23.9297 320.439 24.3594C321.67 24.7891 322.725 25.4824 323.604 26.4395C324.502 27.3965 325.195 28.6562 325.684 30.2188C326.172 31.7617 326.416 33.6562 326.416 35.9023V56H317.217V35.9023C317.217 34.5156 317.041 33.4609 316.689 32.7383C316.357 32.0156 315.869 31.5176 315.225 31.2441C314.6 30.9707 313.848 30.834 312.969 30.834C311.992 30.834 311.143 31.0391 310.42 31.4492C309.697 31.8398 309.092 32.3867 308.604 33.0898C308.115 33.7734 307.754 34.584 307.52 35.5215C307.285 36.459 307.168 37.4746 307.168 38.5684ZM331.221 40.4727V39.8574C331.221 37.5332 331.553 35.3945 332.217 33.4414C332.881 31.4688 333.857 29.7598 335.146 28.3145C336.436 26.8691 338.018 25.7461 339.893 24.9453C341.768 24.125 343.916 23.7148 346.338 23.7148C348.799 23.7148 350.967 24.125 352.842 24.9453C354.736 25.7461 356.328 26.8691 357.617 28.3145C358.906 29.7598 359.883 31.4688 360.547 33.4414C361.211 35.3945 361.543 37.5332 361.543 39.8574V40.4727C361.543 42.7773 361.211 44.916 360.547 46.8887C359.883 48.8418 358.906 50.5508 357.617 52.0156C356.328 53.4609 354.746 54.584 352.871 55.3848C350.996 56.1855 348.838 56.5859 346.396 56.5859C343.975 56.5859 341.816 56.1855 339.922 55.3848C338.027 54.584 336.436 53.4609 335.146 52.0156C333.857 50.5508 332.881 48.8418 332.217 46.8887C331.553 44.916 331.221 42.7773 331.221 40.4727ZM340.391 39.8574V40.4727C340.391 41.7227 340.488 42.8945 340.684 43.9883C340.898 45.082 341.24 46.0391 341.709 46.8594C342.178 47.6797 342.793 48.3242 343.555 48.793C344.336 49.2422 345.283 49.4668 346.396 49.4668C347.51 49.4668 348.447 49.2422 349.209 48.793C349.971 48.3242 350.586 47.6797 351.055 46.8594C351.523 46.0391 351.855 45.082 352.051 43.9883C352.266 42.8945 352.373 41.7227 352.373 40.4727V39.8574C352.373 38.627 352.266 37.4746 352.051 36.4004C351.855 35.3066 351.523 34.3398 351.055 33.5C350.586 32.6602 349.961 32.0059 349.18 31.5371C348.418 31.0684 347.471 30.834 346.338 30.834C345.244 30.834 344.316 31.0684 343.555 31.5371C342.793 32.0059 342.178 32.6602 341.709 33.5C341.24 34.3398 340.898 35.3066 340.684 36.4004C340.488 37.4746 340.391 38.627 340.391 39.8574ZM342.09 20.1113L347.891 11H357.676L349.561 20.1113H342.09ZM376.982 49.5254L383.604 24.3008H393.213L382.695 56H376.924L376.982 49.5254ZM372.705 24.3008L379.297 49.5547L379.355 56H373.584L363.066 24.3008H372.705ZM406.221 24.3008V56H397.051V24.3008H406.221ZM396.494 16.0977C396.494 14.7695 396.963 13.6855 397.9 12.8457C398.838 11.9863 400.068 11.5566 401.592 11.5566C403.115 11.5566 404.346 11.9863 405.283 12.8457C406.24 13.6855 406.719 14.7695 406.719 16.0977C406.719 17.4063 406.24 18.4902 405.283 19.3496C404.346 20.1895 403.115 20.6094 401.592 20.6094C400.068 20.6094 398.838 20.1895 397.9 19.3496C396.963 18.4902 396.494 17.4063 396.494 16.0977ZM422.451 11V56H413.281V11H422.451Z" fill="black"></path><path fill-rule="evenodd" clip-rule="evenodd" d="M31.154 6.08434C31.1655 5.78818 31.111 5.49317 30.9944 5.22049C30.8777 4.94781 30.7019 4.70424 30.4795 4.50728C30.257 4.31031 29.9937 4.16484 29.7081 4.08133C29.4225 3.99781 29.1219 3.97831 28.8278 4.02424C20.4297 5.3306 12.8225 9.70864 7.49335 16.3027C7.30875 16.5337 7.17744 16.8023 7.10852 17.0895C7.03956 17.3767 7.03475 17.6754 7.09454 17.9647C7.15427 18.2538 7.27704 18.5264 7.45425 18.7632C7.63142 19 7.85865 19.1951 8.11988 19.3348C15.0209 22.9859 21.4655 25.8537 25.8023 23.3632C30.1391 20.8726 30.8723 13.8267 31.154 6.08434ZM60.5687 18.7651C60.3904 19.0018 60.1622 19.1963 59.8994 19.3348C53.0227 22.9666 46.5442 25.8584 42.2025 23.3631C37.8609 20.8678 37.1373 13.875 36.8604 6.09884C36.8506 5.80332 36.9063 5.50925 37.0236 5.2376C37.1409 4.96594 37.3168 4.72336 37.5389 4.52711C37.761 4.33087 38.0238 4.18581 38.3086 4.10223C38.5934 4.01865 38.8932 3.99862 39.1867 4.04356C47.5855 5.33888 55.196 9.71087 60.5259 16.3026C60.7124 16.5331 60.845 16.8016 60.9149 17.0892C60.9849 17.3767 60.9902 17.676 60.9305 17.9657C60.8702 18.2554 60.7469 18.5284 60.5687 18.7651ZM62.7453 50.7346C62.9969 50.8915 63.28 50.9914 63.5743 51.027C63.8691 51.0627 64.1678 51.0334 64.4495 50.941C64.7316 50.8487 64.9895 50.6957 65.2051 50.4928C65.4212 50.29 65.5893 50.0423 65.698 49.7674C68.7673 41.8754 68.7673 33.1267 65.698 25.2347C65.5897 24.9599 65.4222 24.7122 65.2071 24.5094C64.9914 24.3065 64.734 24.1535 64.4524 24.0611C64.1707 23.9688 63.8725 23.9394 63.5782 23.975C63.2839 24.0107 63.0013 24.1105 62.7502 24.2675C56.1163 28.3683 50.3954 32.5079 50.3954 37.4793C50.3954 42.4506 56.1503 46.6192 62.7453 50.7346ZM5.25462 24.2868C5.0032 24.1298 4.72018 24.03 4.42562 23.9943C4.13105 23.9586 3.83212 23.988 3.55025 24.0803C3.26837 24.1726 3.01039 24.3257 2.79463 24.5285C2.57886 24.7314 2.41063 24.9791 2.30187 25.254C-0.767289 33.146 -0.767289 41.8947 2.30187 49.7867C2.41063 50.0616 2.57886 50.3093 2.79463 50.5121C3.01039 50.715 3.26837 50.868 3.55025 50.9603C3.83212 51.0527 4.13105 51.0821 4.42562 51.0464C4.72018 51.0107 5.0032 50.9108 5.25462 50.7539C11.8788 46.6337 17.5948 42.5086 17.5997 37.5228C17.6045 32.5369 11.8545 28.3829 5.25462 24.2868ZM8.10041 55.6672C7.83787 55.8055 7.60942 56.0004 7.43119 56.2368C7.253 56.4733 7.12955 56.7465 7.06972 57.0362C7.00984 57.3259 7.01499 57.6252 7.08487 57.913C7.15476 58.2002 7.28773 58.4691 7.47402 58.6993C12.811 65.2979 20.4329 69.6706 28.8424 70.9584C29.1356 71.0034 29.4353 70.9835 29.7199 70.8999C30.0045 70.8162 30.267 70.6711 30.4888 70.4748C30.7105 70.2785 30.886 70.0357 31.0026 69.7639C31.1193 69.4926 31.1743 69.1986 31.1637 68.9031C30.8917 61.1269 30.1633 54.1342 25.8216 51.6389C21.4799 49.1435 14.9771 52.0354 8.10041 55.6672ZM37.0103 69.7813C36.8936 69.5091 36.8391 69.2136 36.8508 68.9176C37.1276 61.1753 37.8561 54.1293 42.1978 51.6388C46.5395 49.1483 52.9839 52.016 59.88 55.6672C60.1418 55.8064 60.3696 56.0013 60.5473 56.2378C60.725 56.4748 60.8484 56.7475 60.9081 57.0367C60.9679 57.3264 60.963 57.6252 60.8936 57.9125C60.8241 58.2002 60.692 58.4686 60.5065 58.6993C55.1804 65.2945 47.5743 69.673 39.177 70.9777C38.883 71.0213 38.583 71.0009 38.2978 70.9173C38.0126 70.8336 37.7492 70.6895 37.5258 70.4941C37.3031 70.2973 37.127 70.0541 37.0103 69.7813ZM42.0907 37.5034C42.0907 41.953 38.4684 45.5601 34 45.5601C29.5315 45.5601 25.9091 41.953 25.9091 37.5034C25.9091 33.0538 29.5315 29.4468 34 29.4468C38.4684 29.4468 42.0907 33.0538 42.0907 37.5034Z" fill="url(#paint0_linear_38_2)"></path><defs><linearGradient id="paint0_linear_38_2" x1="34" y1="71" x2="34.2928" y2="4.00128" gradientUnits="userSpaceOnUse"><stop stop-color="#005DF9"></stop><stop offset="1" stop-color="#48B7FF"></stop></linearGradient></defs></svg>