<svg width="158" height="158" viewBox="0 0 158 158" fill="none" xmlns="http://www.w3.org/2000/svg">
<circle cx="79" cy="79" r="79" fill="white"/>
<path fill-rule="evenodd" clip-rule="evenodd" d="M79 27C50.2808 27 27 50.282 27 79C27 107.719 50.2814 131 79 131C107.717 131 131 107.719 131 79C131 50.2825 107.717 27 79 27ZM79 126.338C52.8557 126.338 31.6623 105.144 31.6623 79C31.6623 52.8569 52.8557 31.6628 79 31.6628C105.143 31.6628 126.338 52.8569 126.338 79C126.338 105.144 105.143 126.338 79 126.338Z" fill="#222222"/>
<path fill-rule="evenodd" clip-rule="evenodd" d="M68.636 43.6329C72.0028 42.65 75.4927 42.1526 79.0001 42.1559C82.5939 42.1559 86.0683 42.6707 89.3525 43.6301L79.0001 66.5774L68.636 43.6329Z" fill="#222222"/>
<path fill-rule="evenodd" clip-rule="evenodd" d="M98.7775 47.9083C102.657 50.3834 106.042 53.5592 108.76 57.2734L91.7682 94.8741L85.2115 80.2947H72.7883L66.2321 94.8736L49.2651 57.2384C51.9773 53.539 55.3531 50.3754 59.2206 47.9088L72.7883 78.0083H85.2537L98.7775 47.9083ZM43.4004 69.4642C42.571 72.5749 42.1522 75.7807 42.1547 79C42.1547 93.4394 50.4592 105.938 62.5527 111.981L43.4004 69.4642Z" fill="#222222"/>
<path fill-rule="evenodd" clip-rule="evenodd" d="M68.8073 114.417C72.1213 115.368 75.5524 115.849 79.0001 115.845C82.5323 115.845 85.9477 115.348 89.1808 114.421L79.0001 91.8111L68.8073 114.417ZM95.4457 111.981C107.54 105.938 115.844 93.4394 115.844 79C115.844 75.7313 115.418 72.5622 114.621 69.5448L95.4457 111.981Z" fill="#222222"/>
</svg>
