<svg width="158" height="158" viewBox="0 0 158 158" fill="none" xmlns="http://www.w3.org/2000/svg">
<circle cx="79" cy="79" r="79" fill="white"/>
<g clip-path="url(#clip0_81_114)">
<path d="M38 59L39.7935 99H48.5104L48.3197 82.4129H55.6294V77.2423H48.3197L48.3467 64.2267H57.89L57.8385 59H38ZM61.2846 59L62.3875 99H71.3892L71.5716 59.0006L61.2846 59ZM103.484 59V64.0453H110.594L110.389 99H119.098L120.948 64.04H128L127.946 59H103.484ZM85.1461 77.513L85.2443 63.9265H90.2712C92.5498 66.952 94.0136 70.9537 95.1615 77.513H85.1461ZM77.1156 98.9988H85.4488L85.5421 82.459H95.5264C96.311 85.3781 96.5033 94.3896 96.5499 98.9988H104.634C105.399 78.5784 103.029 67.0365 96.4828 59H76.3531L77.1156 98.9988Z" fill="#222222"/>
</g>
<defs>
<clipPath id="clip0_81_114">
<rect width="90" height="40" fill="white" transform="translate(38 59)"/>
</clipPath>
</defs>
</svg>
