<svg width="158" height="158" viewBox="0 0 158 158" fill="none" xmlns="http://www.w3.org/2000/svg">
<circle cx="79" cy="79" r="79" fill="white"/>
<g clip-path="url(#clip0_111_62)">
<path d="M97.0677 107.149C83.722 115.432 78.4999 121 78.4999 121L37.363 92.3131C37.363 92.3131 54.6651 79.4654 69.1313 89.3044L88.5325 102.73L90.8946 101.163L37.3665 63.3185C37.3665 63.3185 45.0647 61.0705 59.9287 51.8541C73.2778 43.5645 78.4999 38 78.4999 38L119.637 66.6903C119.637 66.6903 102.335 79.538 87.8651 69.6991L68.4707 56.2635L66.1087 57.8335L119.63 95.685C119.63 95.685 111.939 97.9295 97.0677 107.149Z" fill="#222222"/>
</g>
<defs>
<clipPath id="clip0_111_62">
<rect width="83" height="83" fill="white" transform="translate(37 38)"/>
</clipPath>
</defs>
</svg>
