<svg width="158" height="158" viewBox="0 0 158 158" fill="none" xmlns="http://www.w3.org/2000/svg">
<circle cx="79" cy="79" r="79" fill="white"/>
<g clip-path="url(#clip0_111_61)">
<path d="M79.5 40.3565C49.4024 40.3565 25 57.8813 25 79.4899C25 101.114 49.4024 118.644 79.5 118.644C109.598 118.644 134 101.119 134 79.4899C134 57.8612 109.598 40.3565 79.5 40.3565ZM79.5 101.845C75.0219 101.845 71.3704 92.0538 71.1433 79.737C76.7038 80.2775 82.2962 80.2775 87.8567 79.737C87.6296 92.0487 83.9781 101.845 79.5 101.845ZM71.6929 69.9612C72.91 61.2542 75.9484 55.0731 79.5 55.0731C83.0516 55.0731 86.0854 61.2542 87.3071 69.9612C82.1126 70.4732 76.8874 70.4732 71.6929 69.9612ZM79.5 46.0133C73.6549 46.0133 68.6681 55.7336 66.8287 69.3007C55.7471 67.3849 48.0126 63.0087 48.0126 57.9267C48.0126 51.07 62.11 45.5192 79.5 45.5192C96.8946 45.5192 110.987 51.0751 110.987 57.9267C110.987 63.0087 103.253 67.3849 92.1712 69.3007C90.3319 55.7386 85.3451 46.0183 79.5 46.0183V46.0133ZM32.8117 78.0278C32.8117 71.398 35.1143 65.1716 39.1155 59.8274C39.0746 60.2005 39.0474 60.5837 39.0474 60.9668C39.0474 69.3209 50.3334 76.4448 66.0839 79.0664C66.0703 79.6714 66.0703 80.2865 66.0703 80.9016C66.0703 96.4803 70.0034 109.664 75.4397 114.141C51.5506 112.543 32.8117 96.9845 32.8117 78.0278ZM83.5602 114.141C88.9966 109.664 92.9297 96.4753 92.9297 80.9016C92.9297 80.2815 92.9206 79.6765 92.9161 79.0715C108.657 76.4498 119.953 69.331 119.953 60.9668C119.953 60.5837 119.925 60.2005 119.884 59.8274C123.886 65.1867 126.184 71.398 126.184 78.0278C126.184 96.9845 107.449 112.543 83.5602 114.141Z" fill="#222222"/>
</g>
<defs>
<clipPath id="clip0_111_61">
<rect width="109" height="121" fill="white" transform="translate(25 19)"/>
</clipPath>
</defs>
</svg>
