<svg width="158" height="158" viewBox="0 0 158 158" fill="none" xmlns="http://www.w3.org/2000/svg">
<circle cx="79" cy="79" r="79" fill="white"/>
<path d="M50.0081 72.2428V90.9993H42.9663V74.5916C42.9663 74.5916 42.6849 72.2113 40.6144 72.2113H36.9484V90.9993H30.1039V72.2113H23.9203V90.9993H17V65H42.6849C49.8652 65 50.0081 72.2428 50.0081 72.2428ZM75.4293 65H92.155L84.4966 72.2106H75.4293V65ZM56.7501 74.7779H66.957V73.5862C66.957 73.5862 66.957 71.885 64.5027 71.885H51.5056V65.0007H66.6528C74.5528 65.0007 73.8021 73.4623 73.8021 73.4623V85.1724L95.0931 65.0015H113.83C122.338 65.0015 123.411 70.9537 123.411 78.143C123.411 83.2864 122.829 91 114.317 91H98.8116L98.799 70.7902L77.3872 91L56.7495 90.9934C55.7256 90.9934 50.0119 91.4187 50.0119 82.622C50.0125 74.2535 55.7262 74.7779 56.7501 74.7779ZM105.915 83.788H111.875C115.681 83.788 116.485 82.284 116.485 78.1995C116.485 74.1032 115.681 72.2113 111.875 72.2113H105.915V83.788ZM58.8465 84.4927H66.8356L66.84 80.6832H58.8516C58.1939 80.6832 56.9151 80.6832 56.9151 82.5392C56.9151 84.4215 58.1894 84.4927 58.8465 84.4927ZM96.7905 83.788V90.9993H80.3025L87.7952 83.788H96.7905ZM129.986 74.7779H140.198V73.5862C140.198 73.5862 140.198 71.885 137.738 71.885H124.742V65.0007H139.894C147.784 65.0007 147.038 73.4623 147.038 73.4623V90.9934H129.985C128.963 90.9934 123.249 91.4187 123.249 82.622C123.249 74.2535 128.964 74.7779 129.986 74.7779ZM132.083 84.4927H140.069L140.078 80.6832H132.088C131.431 80.6832 130.149 80.6832 130.149 82.5392C130.148 84.4215 131.426 84.4927 132.083 84.4927Z" fill="#222222"/>
</svg>
