<svg width="158" height="158" viewBox="0 0 158 158" fill="none" xmlns="http://www.w3.org/2000/svg">
<circle cx="79" cy="79" r="79" fill="white"/>
<path d="M143.474 64.2872L105.496 64.2926C104.529 64.2926 103.897 64.0064 103.897 62.6726V57.035C103.897 55.4096 103.022 54.551 101.435 54.551H57.9541C56.3287 54.551 55.4917 55.469 55.4917 57.0188V62.6564C55.4917 63.8444 54.9301 64.2764 53.8879 64.2764L28.9993 64.2818C27.0931 64.2818 25.9807 65.189 25.4083 66.3824L13.2853 90.0668C13.1287 90.3692 13.0369 90.7202 13.0369 91.0766C13.0369 92.0108 13.6471 93.2258 15.3481 93.2258L53.8825 93.2204C55.0705 93.2204 55.4863 93.7604 55.4863 94.8404V100.473C55.4863 102.174 56.4691 102.94 57.9541 102.94H101.429C102.909 102.94 103.897 102.222 103.897 100.489L103.892 94.8566C103.892 93.7064 104.378 93.2366 105.49 93.2366L129.661 93.2312C131.324 93.2312 132.523 92.7938 133.36 91.244L145.342 67.835C145.607 67.3274 145.78 67.0412 145.78 66.4418C145.78 64.8434 144.408 64.2872 143.474 64.2872ZM133.9 73.721L128.122 85.0232C127.76 85.682 127.117 85.7036 126.664 85.7036H98.0005C96.8125 85.7036 96.3805 86.2382 96.3805 87.3182V93.8198C96.3805 94.8944 95.9053 95.4182 94.7497 95.4182H64.6339C63.6241 95.4182 63.0085 95.0618 63.0085 93.8036V87.3074C63.0085 86.1194 62.4631 85.6982 61.3831 85.6982H26.2345C25.3705 85.6982 24.7765 85.1582 24.7765 84.4022C24.7765 84.1808 24.8305 83.981 24.9277 83.792L30.7057 72.4952C30.9271 72.101 31.2889 71.8148 32.1583 71.8148L61.3831 71.8202C62.3929 71.8202 63.0193 71.4152 63.0193 70.1894V63.6878C63.0193 62.5376 63.5215 62.0786 64.6339 62.0786L94.7443 62.0732C95.8243 62.0732 96.3643 62.5538 96.3643 63.704V70.2002C96.3643 71.318 96.8827 71.8094 98.0005 71.8094H132.587C133.689 71.8094 134.051 72.533 134.051 73.1108C134.051 73.3214 133.997 73.532 133.9 73.721Z" fill="#222222"/>
</svg>
