<svg width="158" height="158" viewBox="0 0 158 158" fill="none" xmlns="http://www.w3.org/2000/svg">
<circle cx="79" cy="79" r="79" fill="white"/>
<path fill-rule="evenodd" clip-rule="evenodd" d="M59.9438 78.4522L67.8207 68.1193C68.1224 67.7134 67.7601 67.2537 67.1266 67.2537L61.0455 67.2131C60.5926 67.2131 59.6873 67.7271 59.295 68.1731L56.5492 71.3786L52.7316 75.8552L52.7616 68.1188C52.7616 67.5916 52.1428 67.2531 51.7658 67.2531H44.7936C44.3106 67.2531 43.873 67.4155 43.8583 68.2132C43.8436 68.9977 44.9295 69.1601 44.9295 69.3762V90.0557C44.9295 90.4479 45.533 91.0426 45.9559 91.0426L51.931 91.0158C52.354 91.002 52.7157 90.4611 52.7157 90.0958L52.7304 81.4805L56.548 85.7136L60.592 90.177C60.9238 90.5286 61.5726 91.0158 62.252 91.0158L68.7406 90.9752C69.3594 90.9752 69.2989 90.2987 69.1483 90.1232C66.0634 86.2435 62.9952 82.3531 59.9438 78.4522ZM82.3362 67.2542H75.4405C74.6258 67.2542 74.4446 67.687 74.3087 68.1468C74.4593 68.985 75.4405 69.2149 75.4405 69.2286V90.0968C75.4405 90.6514 75.8181 91.0168 76.3463 91.0168L78.821 91.0031L82.5027 90.9762C83.1815 90.9762 83.362 90.6114 83.362 90.0968V68.1193C83.362 67.5921 82.8644 67.2542 82.3362 67.2542Z" fill="#222222"/>
<path fill-rule="evenodd" clip-rule="evenodd" d="M103.326 56.5965C95.9924 54.9332 87.739 54 79.0169 54C78.9563 54 78.8957 54.0132 78.821 54.0132C70.9142 54.0132 63.369 54.7977 56.5486 56.1906C37.3997 60.1131 24 68.8769 24 79.0069C24 89.1373 37.3997 97.9007 56.548 101.823C63.3685 103.216 70.913 104 78.8204 104H79.0163C87.7385 104 95.9918 103.081 103.325 101.417C121.508 97.3328 134.048 88.8125 134.048 79.0069C134.049 69.2017 121.509 60.6809 103.326 56.5965ZM103.326 95.9668C96.0982 97.4683 87.8137 98.3203 79.0169 98.3203C78.9563 98.3203 78.8957 98.3071 78.821 98.3071C70.8536 98.3071 63.2938 97.5901 56.5486 96.3322C39.6631 93.181 28.014 86.5945 28.014 79.0074C28.014 71.4202 39.6631 64.8337 56.5486 61.6826C63.2938 60.4246 70.8536 59.7076 78.821 59.6944H79.0169C87.8137 59.6944 96.0982 60.5464 103.326 62.0474C119.215 65.3204 130.034 71.7039 130.034 79.0069C130.034 86.3098 119.215 92.6939 103.326 95.9668Z" fill="#222222"/>
<path fill-rule="evenodd" clip-rule="evenodd" d="M108.079 68.1468C107.853 67.6865 107.46 67.2542 106.947 67.2542H97.6217C97.29 67.2542 96.837 67.4978 96.837 67.9032C96.8223 69.0931 98.2111 69.053 98.1352 69.2286L90.2737 90.0156C90.1384 90.3673 90.4848 91.0163 90.9678 91.0163L96.4453 90.9757C96.9276 90.9757 97.607 90.6109 97.8035 90.0831L100.399 83.1049C101.274 80.7783 102.15 78.4522 103.009 76.1262C103.055 76.0318 103.191 75.9775 103.326 75.9775C103.537 75.9775 103.764 76.045 103.809 76.1805L108.894 90.1648C109 90.4759 109.709 90.9762 110.086 90.9762L115.79 91.0168C116.121 91.0168 116.514 90.4216 116.409 90.1511L108.079 68.1468Z" fill="#222222"/>
</svg>
