<svg width="158" height="158" viewBox="0 0 158 158" fill="none" xmlns="http://www.w3.org/2000/svg">
<circle cx="79" cy="79" r="79" fill="white"/>
<g clip-path="url(#clip0_81_106)">
<path d="M69.6872 32.0909C69.7983 32.2424 69.3318 32.2928 67.1438 32.3534C63.9563 32.4342 57.2813 32.8482 54.0383 33.1613C53.1831 33.242 52.3057 33.3127 52.0946 33.3127C51.8836 33.3127 51.1062 33.3733 50.3731 33.4642C49.6401 33.545 48.3407 33.6864 47.4855 33.7671C46.6303 33.858 45.353 33.9994 44.6533 34.0802C40.6106 34.5548 40.7328 34.5447 37.5119 34.9789C35.7682 35.2212 33.3581 35.5848 31.3812 35.8978C30.8925 35.9685 30.2594 36.0594 29.9707 36.0897C29.693 36.12 29.4042 36.2007 29.3487 36.2714C29.1599 36.4835 29.0488 42.1282 29.0488 51.0851C29.0488 61.1023 29.1599 63.7984 29.7152 67.8982C29.8152 68.5647 29.8818 69.2412 29.8818 69.4129C29.8818 69.5745 29.9484 70.1501 30.0373 70.6752C30.1262 71.2002 30.2594 71.9778 30.3261 72.3918C30.4038 72.8058 30.5038 73.442 30.5482 73.8055C30.6037 74.169 30.7037 74.7345 30.7703 75.0678C30.837 75.401 30.9702 76.0372 31.0591 76.4815C31.3479 77.875 31.8143 79.9047 32.0698 80.8236C32.1586 81.1568 32.303 81.692 32.3919 82.0051C32.7584 83.3481 33.0471 84.3579 33.3692 85.3172C33.4581 85.5696 33.6025 86.0442 33.7135 86.3775C33.8246 86.7107 33.9579 87.0944 34.0245 87.2358C34.08 87.3772 34.1689 87.6195 34.2244 87.7912C34.2688 87.9527 34.491 88.5485 34.7131 89.1039C34.9352 89.6593 35.1574 90.2248 35.2129 90.3662C35.2684 90.5075 35.4128 90.8711 35.5461 91.174C35.6794 91.4769 35.8237 91.8506 35.8793 91.9919C35.9237 92.1333 36.0125 92.3353 36.0792 92.4463C36.1458 92.5473 36.3791 93.0421 36.6012 93.547C36.8344 94.0418 37.1343 94.7083 37.2898 95.0112C37.6674 95.7686 39.9442 99.9188 40.233 100.363C40.3552 100.555 40.5773 100.919 40.7328 101.171C40.8772 101.423 41.0993 101.757 41.2215 101.928C41.3325 102.09 41.4769 102.322 41.5435 102.433C41.6102 102.544 41.7435 102.756 41.8545 102.908C41.9545 103.049 42.1877 103.393 42.3654 103.665C42.9207 104.503 43.9092 105.846 44.3979 106.442C44.6644 106.755 44.8755 107.038 44.8755 107.078C44.8755 107.149 46.708 109.37 47.4633 110.209C47.7631 110.542 48.1963 111.016 48.4184 111.269C50.8063 113.925 54.7935 117.631 57.8144 119.994C59.1583 121.044 59.2027 121.074 60.0357 121.67C60.4689 121.973 60.8354 122.245 60.8687 122.276C61.0908 122.518 65.7 125.527 66.5108 125.961C66.6107 126.022 66.9994 126.244 67.366 126.466C68.1656 126.941 68.3988 127.082 68.6987 127.224C68.8209 127.284 69.0763 127.416 69.254 127.527C69.4428 127.638 69.6872 127.769 69.8094 127.83C69.9315 127.89 70.2869 128.072 70.5868 128.244C70.8978 128.405 71.2976 128.617 71.4753 128.698C71.6641 128.779 71.9862 128.94 72.1972 129.062C72.6637 129.314 76.1178 130.889 77.3617 131.414C77.8504 131.616 78.3391 131.828 78.439 131.879C78.6945 132 79.1387 132 79.3942 131.879C79.4942 131.828 79.9051 131.647 80.3049 131.485C81.5155 130.98 84.6475 129.566 85.4139 129.183C85.8137 128.981 86.3579 128.708 86.6356 128.567C86.9132 128.435 87.2909 128.233 87.4686 128.122C87.6574 128.021 87.9017 127.89 88.0239 127.84C88.146 127.789 88.4237 127.638 88.6347 127.506C88.8458 127.375 89.1012 127.234 89.19 127.193C89.2789 127.153 89.5121 127.032 89.6898 126.921C89.8786 126.81 90.0897 126.688 90.1785 126.658C90.2563 126.618 90.856 126.264 91.5113 125.86C92.1555 125.467 92.944 124.982 93.2439 124.8C93.7992 124.457 97.2533 122.084 98.1862 121.407C101.263 119.176 105.883 115.056 108.571 112.188C108.693 112.057 108.871 111.875 108.971 111.784C109.059 111.693 109.304 111.42 109.515 111.168C109.715 110.915 109.948 110.663 110.015 110.613C110.081 110.552 110.459 110.128 110.848 109.653C111.247 109.179 111.625 108.724 111.703 108.643C112.713 107.492 115.612 103.605 116.179 102.635C116.245 102.524 116.39 102.292 116.501 102.13C116.623 101.959 116.856 101.595 117.023 101.322C117.189 101.04 117.4 100.706 117.478 100.565C118.045 99.6361 118.511 98.8383 119.122 97.7377C120.055 96.0412 120.577 95.0112 121.343 93.3451C121.432 93.1532 121.576 92.8402 121.665 92.6584C121.743 92.4867 121.898 92.1333 122.009 91.8808C122.109 91.6284 122.254 91.3154 122.309 91.174C122.376 91.0326 122.465 90.8105 122.509 90.6691C122.565 90.5277 122.709 90.1642 122.842 89.8613C122.976 89.5583 123.12 89.1645 123.176 89.0029C123.265 88.7202 123.353 88.4677 123.675 87.6397C123.753 87.4478 123.909 87.0136 124.009 86.6804C124.12 86.3472 124.253 85.9634 124.32 85.8221C124.375 85.6807 124.464 85.4081 124.52 85.2162C124.564 85.0243 124.708 84.5396 124.831 84.1559C124.964 83.7621 125.108 83.2673 125.175 83.0451C125.23 82.823 125.33 82.4393 125.408 82.1868C125.775 80.9044 125.941 80.2682 126.341 78.5011C126.441 78.0568 126.596 77.4105 126.685 77.0672C126.774 76.7238 126.841 76.3401 126.841 76.2088C126.841 76.0877 126.907 75.6534 126.996 75.2697C127.518 72.9977 128.496 65.7877 128.518 63.96C128.54 62.6574 128.651 61.8394 128.818 61.8596C128.918 61.8798 128.951 59.5573 128.951 50.4692C128.951 43.7742 128.907 39.0787 128.851 39.109C128.696 39.1998 128.618 38.8969 128.607 38.079C128.596 37.6549 128.562 37.049 128.529 36.746C128.451 36.1906 128.451 36.1906 128.007 36.12C127.763 36.0897 127.241 35.9988 126.841 35.9281C126.441 35.8574 125.841 35.7766 125.508 35.7362C125.175 35.6958 124.597 35.6151 124.231 35.5545C123.498 35.4333 122.676 35.3121 118.511 34.7264C118.056 34.6558 117.334 34.5649 116.901 34.5245C116.479 34.4841 115.779 34.3932 115.346 34.3326C114.924 34.272 113.968 34.161 113.235 34.0802C112.502 33.9994 111.458 33.8782 110.903 33.8075C110.359 33.7469 109.481 33.6561 108.959 33.6157C108.437 33.5753 107.493 33.4945 106.849 33.4238C106.205 33.3632 105.006 33.242 104.184 33.1613C103.362 33.0805 102.407 33.0098 102.073 33.0098C101.74 33.0098 100.841 32.9391 100.074 32.8583C99.308 32.7775 98.3195 32.7069 97.8642 32.7069C97.4199 32.7069 96.2426 32.6463 95.2542 32.5655C94.2768 32.4847 92.3332 32.3938 90.9449 32.3635C88.4348 32.3029 88.0239 32.2625 88.146 32.0909C88.1794 32.0404 84.3588 32 78.9166 32C73.4967 32 69.6539 32.0404 69.6872 32.0909ZM85.2473 35.0294C93.2883 35.2111 103.406 35.8271 108.737 36.4633C109.259 36.5239 110.103 36.6047 110.625 36.6451C111.147 36.6854 111.992 36.7662 112.514 36.8369C113.036 36.8975 114.035 37.0187 114.735 37.1096C117.511 37.4428 121.532 37.978 123.731 38.3213C124.253 38.392 124.853 38.4829 125.075 38.5132C125.308 38.5435 125.541 38.6344 125.619 38.7151C125.986 39.1191 126.03 58.8202 125.675 62.1424C125.586 62.9704 125.508 63.9095 125.508 64.2125C125.508 64.7578 125.286 66.848 125.042 68.5546C124.986 69.0292 124.886 69.7562 124.842 70.1703C124.797 70.5843 124.697 71.2709 124.62 71.6849C124.253 73.8358 124.153 74.4215 123.998 75.0678C123.909 75.4515 123.842 75.8756 123.842 76.0069C123.842 76.128 123.775 76.4916 123.687 76.8147C123.598 77.1277 123.442 77.7538 123.342 78.1981C122.876 80.2379 122.354 82.1363 121.665 84.3074C121.265 85.5292 120.377 88.0133 119.977 89.0029C119.888 89.2251 119.755 89.5684 119.677 89.7603C119.388 90.4772 118.822 91.7395 118.666 92.0121C118.578 92.1737 118.511 92.3454 118.511 92.3958C118.511 92.5372 117.523 94.4659 116.412 96.5259C115.634 97.9396 114.879 99.2423 114.457 99.8582C114.324 100.05 114.179 100.282 114.146 100.363C114.102 100.444 113.968 100.646 113.846 100.818C113.724 100.979 113.58 101.211 113.513 101.322C113.224 101.807 112.48 102.857 110.848 105.059C110.07 106.099 107.227 109.441 106.461 110.199C106.405 110.259 106.183 110.491 105.972 110.714C104.828 111.945 102.44 114.197 100.174 116.177C99.3413 116.904 96.6425 119.014 95.7428 119.65C95.4652 119.842 95.2208 120.024 95.1875 120.054C95.132 120.125 93.2661 121.407 92.8441 121.69C91.789 122.367 90.8671 122.952 90.7116 123.033C90.6228 123.084 90.1785 123.356 89.7232 123.639C89.2789 123.912 88.8235 124.184 88.7236 124.245C88.6236 124.295 87.8684 124.709 87.0576 125.164C86.2468 125.608 85.5027 126.002 85.4139 126.042C85.325 126.083 85.1029 126.204 84.9141 126.305C84.381 126.618 83.4147 127.072 79.7163 128.748C79.372 128.91 79.0166 129.041 78.9499 129.041C78.8722 129.041 78.4835 128.9 78.0836 128.728C76.6842 128.112 74.7961 127.254 74.1964 126.951C73.8632 126.779 73.3745 126.537 73.108 126.406C72.4749 126.083 72.4305 126.062 71.0533 125.305C70.3869 124.942 69.7649 124.598 69.665 124.548C69.565 124.487 69.1763 124.265 68.8098 124.043C68.4433 123.821 68.0545 123.599 67.9546 123.538C67.4659 123.265 65.1336 121.781 64.245 121.165C63.1344 120.408 61.2352 119.014 60.1024 118.136C57.1258 115.823 54.2493 113.218 51.8281 110.663C50.8951 109.663 50.4953 109.229 49.1848 107.735C48.4517 106.907 46.3082 104.19 45.9306 103.615C45.8639 103.524 45.6196 103.17 45.3753 102.837C44.8755 102.15 44.7089 101.918 44.5423 101.625C44.4756 101.514 44.3313 101.282 44.2091 101.12C44.0869 100.949 43.9425 100.727 43.8759 100.616C43.8092 100.504 43.6093 100.181 43.4205 99.9087C43.2428 99.626 43.0096 99.2625 42.9207 99.1009C42.8319 98.9292 42.5875 98.5253 42.3765 98.1921C41.5324 96.8086 40.2552 94.3851 39.4333 92.5877C39.1223 91.8909 38.8114 91.2346 38.7447 91.1336C38.6781 91.0225 38.5892 90.8206 38.5337 90.6792C38.4449 90.3964 38.256 89.9319 37.8784 89.0534C37.7451 88.7505 37.6008 88.3567 37.5452 88.1951C37.4564 87.9124 37.3675 87.6599 37.0454 86.8319C36.9677 86.64 36.8122 86.2058 36.7123 85.8726C36.6012 85.5393 36.4457 85.1152 36.368 84.9335C36.2791 84.7517 36.2125 84.5295 36.2125 84.4286C36.2125 84.3377 36.1458 84.0852 36.057 83.853C35.9681 83.6308 35.8126 83.1562 35.7127 82.7927C35.6127 82.4292 35.4572 81.9041 35.3795 81.6314C34.9908 80.3591 34.6131 78.7737 34.0578 76.1987C33.7135 74.5932 33.6358 74.2296 33.5469 73.6036C33.4359 72.7856 33.2471 71.695 33.036 70.5641C32.9583 70.0895 32.8805 69.5644 32.8805 69.4028C32.8805 69.2412 32.8139 68.5445 32.7139 67.8477C32.514 66.3128 32.2697 63.6773 32.092 61.2336C31.8921 58.4869 31.8476 45.2081 32.0253 41.6738C32.1142 39.836 32.2142 38.7252 32.2919 38.6545C32.3585 38.594 32.7584 38.5031 33.1804 38.4627C33.5914 38.4122 34.2133 38.3314 34.5465 38.2708C34.8797 38.2102 35.6349 38.0992 36.2125 38.0184C36.79 37.9376 37.7229 37.7962 38.2783 37.7053C38.8336 37.6246 39.4333 37.5539 39.611 37.5539C39.7887 37.5539 40.3329 37.4933 40.8216 37.4125C41.9212 37.2307 43.3095 37.0591 44.4867 36.948C44.9754 36.9076 45.7751 36.8167 46.2638 36.7561C46.7524 36.6955 47.8298 36.5845 48.6516 36.5037C49.4735 36.4229 50.6508 36.3017 51.2617 36.2411C51.8725 36.1705 52.9276 36.0897 53.594 36.0392C54.2715 35.9988 55.371 35.9079 56.0374 35.8473C58.1254 35.6656 60.3023 35.5141 62.1459 35.4333C63.1233 35.3929 64.9781 35.302 66.2553 35.2414C71.8752 34.9587 78.7833 34.8779 85.2473 35.0294Z" fill="#222222"/>
<path d="M68.5877 36.7561C67.8547 36.7965 66.0332 36.8874 64.5338 36.9379C63.0345 36.9985 61.4352 37.0995 60.9798 37.15C60.5244 37.2005 59.747 37.2408 59.2583 37.2509C58.7585 37.2509 57.7589 37.3216 57.037 37.4024C56.304 37.4832 55.3822 37.5539 54.9823 37.5539C54.5825 37.5539 53.7828 37.6246 53.2053 37.7053C52.6278 37.7861 51.8725 37.8568 51.5282 37.8568C51.1839 37.8568 50.6286 37.9073 50.3065 37.9578C49.9733 38.0184 49.1848 38.1093 48.5406 38.1598C47.3966 38.2506 46.6747 38.3213 44.3202 38.6142C43.676 38.6949 42.9319 38.7757 42.6542 38.806C42.3765 38.8262 41.7768 38.8969 41.3214 38.9676C40.8661 39.0282 39.9998 39.1494 39.4 39.2301C37.1565 39.523 36.0126 39.6946 34.9908 39.8663L33.9357 40.0481L33.8135 43.0674C33.6469 46.9551 33.6247 55.0435 33.7691 58.4061C33.9024 61.5466 34.1578 64.8991 34.3799 66.636C34.4799 67.3327 34.5465 68.0295 34.5465 68.2012C34.5354 68.9282 35.535 74.7244 36.0459 76.9359C36.1236 77.2994 36.2791 77.9558 36.3791 78.4001C36.7567 80.0461 37.523 82.7523 38.045 84.2569C38.1117 84.4791 38.2672 84.9335 38.3782 85.2667C38.4782 85.5999 38.6337 86.0341 38.7114 86.226C39.0335 87.054 39.1224 87.3065 39.2112 87.5892C39.2668 87.7508 39.4111 88.1446 39.5444 88.4476C39.922 89.3261 40.1108 89.7906 40.1997 90.0733C40.2552 90.2147 40.3441 90.4166 40.4107 90.5277C40.4774 90.6287 40.7106 91.1235 40.9327 91.6284C41.799 93.5369 42.9652 95.7484 44.0314 97.5357C44.2535 97.8992 44.4646 98.2628 44.509 98.3435C44.5867 98.5051 45.4641 99.8986 45.6529 100.161C45.7085 100.242 45.8862 100.515 46.0528 100.767C46.2194 101.02 46.6858 101.676 47.0857 102.231C47.4855 102.787 47.8631 103.322 47.9298 103.413C48.1852 103.817 50.4398 106.624 50.7064 106.866C50.773 106.927 51.1284 107.341 51.506 107.785C51.8836 108.229 52.3057 108.704 52.4501 108.845C52.5944 108.987 52.9832 109.401 53.3164 109.754C54.1938 110.714 54.9379 111.42 56.9259 113.238C60.0802 116.096 61.2797 117.055 64.9781 119.63C65.6778 120.125 66.5885 120.741 67.0106 120.993C67.4215 121.256 68.0879 121.67 68.4877 121.922C68.8876 122.175 69.2319 122.377 69.2541 122.377C69.2763 122.377 69.6095 122.569 69.9982 122.811C70.3869 123.053 70.7756 123.275 70.8645 123.316C70.9534 123.356 71.1866 123.477 71.3643 123.588C71.5531 123.699 71.7974 123.831 71.9196 123.891C72.0418 123.952 72.2972 124.083 72.4749 124.194C72.6637 124.305 72.9081 124.437 73.0302 124.497C73.1524 124.548 73.5522 124.75 73.9188 124.942C75.718 125.881 78.6612 127.224 78.9389 127.224C79.1832 127.224 83.237 125.356 84.7364 124.548C85.4916 124.134 86.8133 123.407 87.0576 123.265C87.2242 123.164 87.4242 123.053 87.513 123.023C88.2794 122.68 93.6215 119.206 94.9654 118.166C95.1209 118.045 95.5874 117.691 96.0205 117.358C96.4426 117.035 96.8535 116.722 96.9201 116.671C96.9868 116.611 97.5088 116.187 98.0863 115.722C99.4302 114.621 102.318 111.986 103.528 110.774C104.039 110.249 104.539 109.754 104.639 109.663C104.728 109.572 105.128 109.138 105.528 108.694C105.916 108.25 106.294 107.836 106.361 107.785C106.583 107.603 109.437 104.079 110.126 103.14C110.914 102.06 110.759 102.292 112.103 100.252C112.702 99.3432 113.235 98.5253 113.291 98.4445C113.624 97.9295 115.179 95.1526 115.823 93.9004C116.612 92.3454 116.845 91.8708 116.845 91.79C116.845 91.7395 116.912 91.5678 117.001 91.4062C117.156 91.1336 117.722 89.8714 118.011 89.1544C118.089 88.9625 118.222 88.6192 118.311 88.3971C118.544 87.8417 118.7 87.3974 118.966 86.6299C119.1 86.2664 119.266 85.812 119.344 85.6201C119.422 85.4283 119.566 84.9941 119.677 84.6608C120.099 83.3481 120.166 83.1259 120.344 82.5402C120.444 82.207 120.599 81.7223 120.688 81.4699C120.777 81.2073 120.843 80.9145 120.843 80.8236C120.843 80.7226 120.91 80.4096 120.999 80.1268C121.177 79.5614 121.388 78.7232 121.676 77.4913C121.776 77.047 121.91 76.4815 121.976 76.229C122.032 75.9766 122.132 75.502 122.176 75.1687C122.232 74.8355 122.321 74.3104 122.387 74.0075C123.054 70.766 123.675 65.5555 123.975 60.6782C124.142 58.083 124.153 42.4312 123.998 40.9367L123.898 40.038L122.842 39.8562C120.81 39.523 118.666 39.2301 113.658 38.6243C112.425 38.4728 110.448 38.2607 107.904 38.0083C107.116 37.9275 105.761 37.7962 104.906 37.7053C104.05 37.6246 103.129 37.5539 102.851 37.5539C102.573 37.5539 101.607 37.4832 100.685 37.4024C99.1303 37.2711 96.8757 37.1298 91.4669 36.8369C88.8791 36.6956 70.6313 36.6249 68.5877 36.7561ZM82.7928 42.9664C83.0482 43.0573 83.0371 43.7843 82.7817 43.855C82.6706 43.8853 81.1157 43.9055 79.3165 43.9055C77.0397 43.9055 76.0179 43.9358 75.929 44.0166C75.7402 44.1882 75.7624 47.4701 75.9623 47.6922C76.0956 47.8437 76.4288 47.8538 79.1832 47.8336L82.2486 47.8033V46.3896L80.7048 46.3593C79.7607 46.3391 79.0943 46.2886 79.0055 46.2179C78.9055 46.1472 78.8611 45.9554 78.8833 45.7433L78.9166 45.3798L81.0047 45.3495C82.3152 45.3394 83.1704 45.3596 83.3037 45.4303C83.5147 45.5313 83.5258 45.6524 83.5258 47.0964C83.5258 48.1971 83.4925 48.6717 83.3925 48.7222C83.3148 48.7626 81.56 48.7929 79.472 48.7727C75.2626 48.7424 75.2182 48.7424 74.8406 48.0557C74.6851 47.7629 74.6518 47.3893 74.6407 45.9958C74.6407 44.9557 74.6962 44.1377 74.774 43.8954C74.9183 43.441 75.4181 43.0472 75.9179 42.9765C76.451 42.9058 82.604 42.8957 82.7928 42.9664ZM71.8419 45.2788C71.8863 48.9646 71.9196 48.9343 66.9773 49.0352C64.2784 49.0958 64.1229 49.0857 63.7009 48.8838C62.9567 48.5404 62.8568 48.1365 62.8901 45.5313L62.9234 43.3703L63.3121 43.2996C64.0896 43.1481 64.0896 43.1582 64.0896 45.5918C64.0896 46.9955 64.134 47.8437 64.2118 47.975C64.3339 48.187 64.3895 48.187 66.5219 48.1163C69.4207 48.0356 70.287 47.9548 70.4869 47.7831C70.6091 47.6619 70.6424 47.1974 70.6424 45.3899C70.6424 44.1579 70.6757 43.1078 70.7201 43.0674C70.7645 43.027 71.0311 43.0068 71.3088 43.027L71.8085 43.0573L71.8419 45.2788ZM91.9111 43.1178C93.1329 43.1784 94.2435 43.2693 94.3879 43.3198C94.6655 43.4208 94.7211 43.7742 94.4878 44.057C94.3434 44.2286 94.2213 44.2387 92.2332 44.1276C91.0782 44.057 89.5344 43.9964 88.8014 43.9863L87.4686 43.9661V45.3798L89.6899 45.4505C90.9116 45.4909 92.3332 45.5616 92.8552 45.6019L93.7992 45.6827L93.8326 46.016C93.8881 46.4906 93.6882 46.6622 93.1995 46.6016C92.9774 46.5713 91.6668 46.4906 90.2674 46.43C88.2794 46.3391 87.7018 46.3492 87.5796 46.4401C87.4019 46.5713 87.3464 47.6013 87.5019 47.8235C87.5908 47.9548 90.434 48.1264 93.2994 48.187L94.4545 48.2072L94.5656 48.5404C94.7544 49.1564 94.7766 49.1564 90.745 49.0554C87.0354 48.9646 86.469 48.9242 86.3579 48.7626C86.3135 48.6919 86.2691 44.5316 86.3024 43.1279C86.3024 42.9664 88.8236 42.9664 91.9111 43.1178ZM60.1024 43.6732C60.1801 43.8752 60.169 43.9964 60.0469 44.168C59.9136 44.3498 59.747 44.4003 59.0251 44.4508C58.5586 44.4912 57.8367 44.5215 57.4368 44.5215C57.037 44.5316 55.8597 44.6123 54.8157 44.7032L52.9276 44.885L52.8943 45.5212C52.8721 45.8746 52.9054 46.2078 52.961 46.2583C53.0276 46.3189 53.6385 46.2987 54.5492 46.1977C55.3711 46.1169 56.7482 46.016 57.6034 45.9857C59.2805 45.9251 59.3138 45.9352 59.3138 46.4199C59.3027 46.8339 59.1694 46.8743 57.348 46.9652C56.3817 47.0056 54.9934 47.1065 54.2604 47.1772L52.9276 47.2984L52.8943 47.9447C52.8721 48.3082 52.9165 48.6414 52.9832 48.702C53.1276 48.8333 54.7158 48.7929 56.5928 48.601C58.4364 48.4193 60.0469 48.4092 60.1135 48.5808C60.1357 48.6515 60.1357 48.8434 60.1024 49.0151C60.0357 49.318 60.0246 49.318 59.1472 49.3786C55.5821 49.6209 54.5492 49.6916 53.3719 49.8128C52.6389 49.8835 51.9947 49.9138 51.9503 49.8734C51.8503 49.7926 51.8392 44.1478 51.9392 44.0065C51.9725 43.956 52.2835 43.9156 52.6278 43.9156C52.9721 43.9156 53.8828 43.8449 54.6491 43.7641C55.4155 43.6833 56.4595 43.6126 56.9815 43.6026C57.5035 43.5925 58.2254 43.5521 58.5919 43.5117C59.8691 43.3703 59.9691 43.3804 60.1024 43.6732ZM103.273 43.7843C105.45 43.9762 105.85 44.1074 106.261 44.7739C106.494 45.1475 106.516 45.299 106.516 46.9753C106.516 48.8737 106.472 49.1059 105.961 49.5199C105.728 49.7118 105.583 49.7219 103.862 49.6916C102.273 49.6714 99.8633 49.4998 98.6527 49.3079C98.4528 49.2776 98.1307 49.1059 97.9086 48.904L97.5199 48.5505V46.3896C97.5199 44.2892 97.531 44.2185 97.7753 43.9661C97.9086 43.8146 98.1974 43.6631 98.4084 43.6126C98.9082 43.5016 100.83 43.5723 103.273 43.7843ZM110.514 44.37C111.092 44.4508 111.792 44.5215 112.069 44.5215C112.347 44.5215 113.091 44.5821 113.735 44.6729C114.379 44.7537 115.379 44.8648 115.957 44.9355C116.534 44.9961 117.078 45.097 117.156 45.1475C117.334 45.2889 117.334 45.9251 117.134 45.9958C117.056 46.0261 116.545 45.9756 116.001 45.8948C114.779 45.7029 113.769 45.6625 113.624 45.7938C113.569 45.8443 113.502 46.8945 113.491 48.2072L113.458 50.5297L113.091 50.56C112.414 50.6206 112.402 50.6004 112.402 48.0053C112.402 46.2482 112.369 45.6322 112.269 45.5616C112.191 45.501 111.681 45.4303 111.125 45.3899C110.581 45.3495 109.781 45.2687 109.348 45.198C108.615 45.0869 108.571 45.0567 108.537 44.7941C108.46 44.1579 108.66 44.1074 110.514 44.37ZM48.4295 44.5619C48.5739 44.6224 48.8183 44.8244 48.9515 45.0163C49.1737 45.3091 49.207 45.4909 49.207 46.2785C49.207 47.046 49.1626 47.2681 48.9515 47.6013C48.6517 48.086 47.9298 48.4496 47.2523 48.4496C46.9968 48.4597 46.5192 48.5102 46.1972 48.5606C45.864 48.6212 45.0199 48.7121 44.3202 48.7626C43.6205 48.8232 42.7431 48.9242 42.3765 48.9949L41.7102 49.116L41.6546 49.9744L41.5991 50.8226L41.2104 50.9034C40.9994 50.9438 40.755 50.9539 40.6884 50.9337C40.5773 50.9034 40.544 50.2268 40.544 48.0154C40.544 45.3697 40.5551 45.1374 40.7439 45.087C40.9549 45.0264 42.0211 44.9052 44.2091 44.6729C47.6077 44.3195 47.8409 44.3195 48.4295 44.5619ZM83.9145 55.2253C85.0807 55.2758 86.8022 55.3465 87.7462 55.3869C89.4899 55.4474 90.2896 55.5787 91.1892 55.9523C92.0777 56.3159 95.654 57.9517 96.6869 58.4566C97.2422 58.7293 97.9419 59.0625 98.2418 59.214C98.5528 59.3554 98.9748 59.5674 99.1858 59.6886C99.3969 59.7997 99.7967 60.0016 100.074 60.143C101.007 60.5974 101.574 60.9104 101.851 61.1023C102.329 61.4355 105.85 64.6265 105.85 64.7275C105.85 64.8789 105.294 64.8284 104.928 64.6366C104.739 64.5457 104.261 64.2731 103.873 64.0307C103.484 63.7985 103.151 63.6066 103.129 63.6066C103.106 63.6066 102.895 63.4854 102.662 63.344C102.429 63.2027 102.14 63.0411 102.018 62.9906C101.896 62.9401 101.651 62.8089 101.463 62.6978C101.285 62.5867 101.052 62.4655 100.963 62.4251C100.874 62.3847 100.452 62.1626 100.019 61.9404C99.5968 61.7082 98.7971 61.3245 98.2529 61.0821C97.2533 60.6479 97.2533 60.6479 95.5874 60.5671C93.6993 60.4661 92.4887 60.3147 92.0777 60.1228C91.5002 59.8401 89.8787 59.1736 88.9124 58.8101C88.3682 58.6081 87.724 58.3658 87.4908 58.2749C87.1132 58.1335 86.7356 58.1335 83.7146 58.2446C81.871 58.3153 79.7496 58.4061 78.9944 58.4263C78.0948 58.4667 77.5839 58.4465 77.5061 58.3759C77.4173 58.2951 77.4617 58.2547 77.6505 58.2143C78.2947 58.1032 80.5049 57.8407 82.082 57.7094C83.026 57.6185 84.3588 57.5074 85.0252 57.4468C85.7027 57.3762 87.0354 57.2954 88.0017 57.2449C88.9679 57.2045 89.7787 57.1439 89.812 57.1136C89.8454 57.0934 89.6788 56.9621 89.4455 56.8309L89.0235 56.5885L82.7484 56.6087C77.8504 56.6188 76.0623 56.6592 74.6185 56.7905L72.7637 56.952L71.1755 57.6892C70.2981 58.0931 69.243 58.598 68.8098 58.8101C67.6659 59.3856 66.7662 59.83 66.1443 60.1228C65.8444 60.2642 65.4446 60.4661 65.2558 60.5671C65.0781 60.6681 64.6005 60.9104 64.2006 61.1023C63.8008 61.3043 63.2233 61.5971 62.9234 61.7587C62.6124 61.9202 62.2903 62.0818 62.2015 62.1222C62.1126 62.1626 61.946 62.2434 61.8461 62.3141C61.624 62.4554 61.4796 62.3746 61.5684 62.1626C61.6017 62.0818 62.0682 61.7486 62.6124 61.4254C63.8341 60.6984 65.0781 59.8502 66.3553 58.8606C67.7325 57.8104 67.9657 57.5781 68.6543 56.639C69.0875 56.0432 69.354 55.7807 69.6428 55.6696C70.0204 55.5181 71.2643 55.4373 76.14 55.2354C78.75 55.1243 81.5267 55.1243 83.9145 55.2253ZM72.5638 60.5368C72.5527 60.658 72.2417 61.2033 71.8863 61.7486C71.5309 62.2939 71.2088 62.819 71.1644 62.8997C71.1199 62.9805 70.9867 63.1825 70.8645 63.3541C70.7534 63.5157 70.5424 63.859 70.398 64.1014C70.1093 64.6063 69.6428 65.0001 69.2207 65.0809C69.0542 65.1112 68.7432 65.192 68.5322 65.2627C68.3211 65.3434 67.8658 65.4747 67.5326 65.5656C67.1994 65.6464 66.4775 65.8584 65.9221 66.0099C64.0452 66.5552 63.612 66.6259 61.4796 66.737C58.6808 66.8682 58.8363 66.8783 58.9695 66.6562C59.0251 66.5552 59.3805 66.3633 59.7581 66.222C60.58 65.9291 60.7132 65.818 61.8128 64.5659C63.19 63.0007 63.2899 62.9199 64.6449 62.3242C66.011 61.7284 66.4886 61.5264 67.0661 61.3144C67.2549 61.2437 67.5881 61.1225 67.788 61.0417C68.1212 60.9104 68.41 60.8095 69.4762 60.4459C69.7983 60.3349 70.2981 60.2945 71.2532 60.3046C72.5416 60.3248 72.586 60.3349 72.5638 60.5368ZM85.0696 63.0613C85.7027 63.3541 85.8582 63.4753 85.8582 63.6571C85.8582 63.7783 85.9359 64.0812 86.0247 64.3235C86.1247 64.5558 86.2025 65.0809 86.2136 65.4646C86.2358 66.1109 86.2025 66.2321 85.9137 66.636C85.7249 66.8884 85.5583 67.1308 85.525 67.1914C85.4916 67.2419 85.1807 67.6963 84.8142 68.1911C84.2255 69.009 84.17 69.1403 84.17 69.6048C84.1811 69.8875 84.2588 70.3924 84.3477 70.7256C84.4365 71.0589 84.592 71.695 84.692 72.1394C84.7919 72.5837 84.9252 73.1492 84.9919 73.4016C85.1696 74.058 85.2362 74.7143 85.114 74.7143C84.803 74.7143 84.3921 74.0176 84.0256 72.8462C83.9145 72.513 83.7701 72.0788 83.6924 71.8869C83.6147 71.695 83.4703 71.2608 83.3592 70.9276C83.2593 70.5944 83.1038 70.14 83.0149 69.9178C82.6817 69.0494 82.7484 68.8777 84.0256 67.3428C84.7808 66.4239 85.1918 65.8483 85.1918 65.6868C85.1918 65.3636 84.8253 64.7174 84.4587 64.4043C84.2255 64.2125 84.0589 64.162 83.5369 64.162C83.1704 64.162 82.6928 64.2428 82.4041 64.3538C82.1375 64.4548 81.7155 64.6063 81.4711 64.6871C81.2268 64.778 80.8825 64.8991 80.6937 64.9698C80.516 65.0405 80.1606 65.1718 79.9162 65.2526C79.6719 65.3333 79.0832 65.5454 78.6168 65.7272L77.7505 66.0604L77.0397 65.8887C76.6398 65.7978 76.1734 65.7272 76.0068 65.7272C75.3293 65.7272 75.2848 65.4141 75.8402 64.6669C76.1734 64.2226 76.5954 64.061 78.228 63.7682C80.2938 63.3844 80.7492 63.3037 81.6377 63.1522C82.1597 63.0613 82.8816 62.93 83.2481 62.8593C84.2033 62.6574 84.2033 62.6574 85.0696 63.0613ZM98.3751 63.132C98.5417 63.2128 99.3635 63.5864 100.185 63.96C101.007 64.3235 101.985 64.7881 102.351 64.9799C102.718 65.1718 103.118 65.3737 103.24 65.4343C103.362 65.4848 103.562 65.5858 103.684 65.6565C104.828 66.2724 105.805 66.8177 106.05 66.9591C106.216 67.0601 106.427 67.1712 106.516 67.2116C106.694 67.2923 108.549 68.4233 109.304 68.9282C109.848 69.2816 110.181 69.8269 110.181 70.3621C110.181 70.5237 110.248 70.9579 110.337 71.3416C110.759 73.1996 110.925 77.9255 110.637 80.1672C110.481 81.3891 110.303 81.8031 109.026 83.9035C108.815 84.267 108.56 84.6911 108.471 84.8628C108.382 85.0243 108.149 85.3879 107.971 85.6706C107.782 85.9433 107.582 86.2664 107.516 86.3775C107.449 86.4885 107.305 86.7107 107.182 86.8824C107.06 87.0439 106.927 87.256 106.883 87.3368C106.605 87.872 104.417 90.6691 104.273 90.6691C104.228 90.6691 104.184 90.144 104.184 89.5078C104.184 88.2052 104.117 88.3163 105.372 87.3671C105.694 87.1247 106.127 86.64 106.405 86.2058C106.927 85.4182 108.771 82.1565 108.882 81.8233C108.915 81.7223 109.048 81.3588 109.171 81.0357C109.304 80.7024 109.404 80.2076 109.404 79.9249C109.404 78.5617 108.715 73.7449 108.338 72.5332C108.249 72.2504 108.182 71.9576 108.182 71.8768C108.171 71.6446 107.716 71.2104 107.238 70.9983C106.649 70.7257 105.772 70.3722 104.684 69.9683C103.329 69.4634 102.918 69.2816 102.673 69.0797C102.562 68.9787 102.185 68.696 101.84 68.4536C100.23 67.2822 99.5746 66.7975 99.519 66.737C99.4857 66.6966 98.8527 66.2523 98.0974 65.7474C96.5536 64.7073 96.387 64.6568 95.032 64.9799C94.399 65.1213 93.8881 65.2425 92.6108 65.5353C92 65.6666 90.9338 65.5757 90.745 65.3737C90.645 65.2728 90.6783 65.2223 90.8783 65.1718C91.0226 65.1314 91.4558 64.9597 91.8556 64.7881C92.6997 64.4346 93.2106 64.2327 93.7215 64.0408C93.9103 63.9701 94.2435 63.8489 94.4434 63.7682C94.6322 63.6975 95.0209 63.5561 95.2986 63.4551C95.5763 63.3642 95.8983 63.233 96.0205 63.1724C96.6314 62.8795 97.7975 62.8593 98.3751 63.132ZM60.4245 64.2933C60.4245 64.3336 59.8691 64.7477 59.1917 65.2122C57.7922 66.1715 57.659 66.3532 57.5701 67.5145C57.5035 68.3223 57.2925 68.696 56.8482 68.7868C56.7038 68.8171 56.3151 68.9383 55.9819 69.0595C55.6487 69.1807 55.2711 69.3018 55.1489 69.3321C54.8824 69.4028 53.8717 70.0794 53.8717 70.1905C53.8717 70.3116 54.4492 70.2813 54.9934 70.1299C56.1818 69.7966 56.4706 69.7663 56.9926 69.9279C57.5257 70.0996 58.2698 70.0592 59.2583 69.8168C59.5693 69.736 60.1801 69.5846 60.6244 69.4735C61.102 69.3523 61.7239 69.0999 62.1126 68.8575C62.8568 68.4031 62.8679 68.4031 62.8679 68.5849C62.8679 68.807 61.835 69.625 61.313 69.8067C61.0353 69.9077 60.6688 70.0491 60.48 70.1198C60.3023 70.1905 59.9358 70.3217 59.6803 70.4126C59.4138 70.5035 58.9917 70.6449 58.7363 70.7357C58.4697 70.8266 58.1143 70.9579 57.9255 71.0286C57.7478 71.0993 57.3702 71.2305 57.0925 71.3315C56.8149 71.4224 56.4706 71.5537 56.3151 71.6042C56.1596 71.6547 55.6931 71.8061 55.26 71.9374C54.8379 72.0687 54.2049 72.2807 53.8717 72.3918C53.5385 72.513 53.1387 72.6342 52.9832 72.6645C52.5833 72.7351 52.1613 73.0482 52.2279 73.2198C52.2724 73.3208 52.6944 73.3915 53.7162 73.4925C54.5048 73.5632 55.2267 73.6642 55.3155 73.7045C55.4044 73.7449 56.1263 74.3912 56.9148 75.1183C58.5586 76.643 58.5475 76.6128 57.1814 76.8248C56.7371 76.8955 55.9819 77.0167 55.5154 77.0975C55.0379 77.1681 54.2382 77.3095 53.7384 77.3903C53.2275 77.4812 52.5944 77.6024 52.3168 77.6629C52.0391 77.7235 51.5949 77.8043 51.3172 77.8447C50.2954 78.0063 50.0844 78.2082 49.8734 79.2079C49.3847 81.4497 49.3958 81.4396 48.5628 80.7024C47.852 80.0763 46.4304 78.3799 46.4304 78.1577C46.4304 77.9356 46.7303 77.5721 47.6965 76.5926C48.1186 76.1684 48.5517 75.714 48.6406 75.5929C49.0293 75.0981 49.3181 74.0883 49.1181 73.9671C48.996 73.9065 48.2963 74.6235 48.1741 74.9264C48.1408 75.0173 47.7187 75.3606 47.2412 75.6938C45.8751 76.643 45.7529 76.6733 45.3975 76.1381C44.8755 75.3202 45.6418 74.5629 50.04 71.5537C50.9618 70.9175 52.0947 70.1602 52.5722 69.8471C53.383 69.322 53.6273 69.0797 54.9712 67.4842C55.2156 67.2015 55.6043 66.8278 55.8375 66.6663C56.2374 66.3835 58.2254 65.2425 59.2583 64.7174C59.5248 64.576 59.8136 64.4043 59.8914 64.3336C60.0357 64.2024 60.4245 64.162 60.4245 64.2933ZM60.691 67.7064C61.1131 68.08 60.7354 68.6657 59.958 68.8373C59.647 68.8979 59.3583 68.9282 59.3027 68.8979C59.2472 68.8676 59.2028 68.6253 59.2028 68.3526C59.2028 67.7266 59.3916 67.5448 60.0357 67.5448C60.3245 67.5448 60.5911 67.6054 60.691 67.7064ZM94.8321 73.0785C96.6314 74.7244 98.6638 76.9157 100.652 79.319C102.373 81.3992 102.473 81.6011 102.651 83.4491C102.918 86.2664 102.795 89.9319 102.34 92.9411C102.04 94.8698 101.651 96.7885 101.34 97.7983C101.252 98.081 101.185 98.3839 101.185 98.4849C101.185 98.9797 100.463 99.7371 99.2969 100.464C99.0859 100.595 98.886 100.737 98.8527 100.767C98.8193 100.797 98.4861 101.04 98.1085 101.302C97.7309 101.565 97.3533 101.837 97.2755 101.908C97.1978 101.969 96.6314 102.393 96.0205 102.837C95.4097 103.281 94.8655 103.695 94.7988 103.756C94.7433 103.817 94.4656 104.019 94.188 104.21C93.7326 104.523 91.4447 106.24 90.5117 106.967C90.3007 107.139 89.8787 107.462 89.5899 107.684C89.3011 107.896 88.9457 108.169 88.8125 108.29C88.6681 108.401 88.0572 108.886 87.4464 109.371C86.4024 110.199 85.8804 110.764 85.3028 111.723C85.1696 111.945 84.9585 112.289 84.8364 112.481C84.7142 112.673 84.481 113.046 84.3366 113.309C83.959 113.965 83.7479 113.945 83.4258 113.208C83.2815 112.895 83.1038 112.481 83.0149 112.299C82.715 111.663 82.5484 111.309 82.3596 110.865C82.2597 110.613 82.1153 110.3 82.0598 110.158C81.6488 109.209 81.6044 109.007 81.7377 108.492C81.8154 108.209 81.9376 107.826 82.0264 107.634C82.1042 107.442 82.2375 107.098 82.3374 106.876C82.7373 105.897 82.8927 105.543 83.026 105.261C83.1038 105.089 83.6591 103.908 84.2477 102.635C84.8364 101.353 85.3695 100.272 85.425 100.222C85.4805 100.161 85.525 100.06 85.525 99.9794C85.525 99.8986 85.6471 99.7068 85.8026 99.5351C85.9803 99.3432 86.0803 99.2928 86.0803 99.3937C86.0803 99.4745 86.0359 99.5755 85.9692 99.6058C85.9137 99.6361 85.8582 99.7875 85.8582 99.939C85.8582 100.08 85.7915 100.383 85.7027 100.616C85.3584 101.545 84.7586 103.463 84.3699 104.857C84.281 105.19 84.1144 105.776 84.0145 106.169C83.7479 107.139 83.7479 108.694 84.0145 109.552C84.3255 110.562 84.5365 111.067 84.6364 111.067C84.692 111.067 84.8475 110.855 84.9919 110.592C85.2695 110.057 86.9133 108.502 88.6903 107.068C89.3011 106.583 89.8231 106.149 89.8565 106.119C90.0342 105.937 94.9321 102.12 96.1871 101.191C96.4648 100.989 96.7646 100.757 96.8646 100.666C96.9646 100.585 97.3866 100.262 97.8086 99.9592C99.0748 99.0403 99.5968 98.5354 99.7189 98.0911C100.041 97.0005 100.208 93.7692 100.163 89.8108C100.119 86.1856 100.097 85.8322 99.8967 85.3071C99.4746 84.2569 98.264 82.8028 96.0094 80.6418C95.4208 80.0764 94.9432 79.5311 94.8988 79.3796C94.8655 79.2281 94.7766 78.8141 94.6877 78.4506C94.61 78.0871 94.4545 77.4307 94.3546 76.9864C94.2546 76.5421 94.1102 75.9059 94.0214 75.5727C93.9436 75.2394 93.7881 74.6033 93.6882 74.159C93.5771 73.7146 93.4216 73.1189 93.3439 72.826C93.1329 72.1293 93.144 72.0889 93.4771 72.0889C93.6882 72.0889 94.0325 72.3312 94.8321 73.0785ZM72.2084 74.9264C72.2417 75.1183 72.3861 75.6333 72.5305 76.0776C72.6637 76.5219 72.8192 77.0672 72.8748 77.2893C72.9192 77.5115 73.0191 77.8548 73.0858 78.0467C73.2413 78.5314 73.2302 79.0868 73.0414 79.4806C72.9525 79.6623 72.5416 80.5409 72.1417 81.4295C71.3865 83.0552 71.1311 83.6005 70.5091 84.8123C70.3203 85.1758 70.0315 85.7413 69.8649 86.0745C68.9653 87.872 67.788 89.9622 67.4993 90.3157C67.3104 90.5378 65.9777 91.79 64.5338 93.0926L61.9127 95.4656L61.7128 96.3744C61.6017 96.9096 61.5129 97.8386 61.5018 98.6465L61.4796 100.01L62.1571 101.02C62.9567 102.211 63.612 103.09 64.6449 104.342C65.0447 104.847 65.4779 105.382 65.6001 105.523C66.3553 106.472 68.0546 108.441 68.7876 109.249C69.2763 109.774 69.8538 110.411 70.0759 110.653C71.1866 111.875 72.4416 113.177 73.419 114.127C73.6966 114.389 74.4185 114.914 75.0294 115.288C75.6403 115.662 76.1511 116.045 76.1734 116.146C76.24 116.469 76.0401 116.399 73.4301 115.157C72.797 114.844 72.3083 114.48 71.2088 113.49C69.8649 112.269 68.3544 110.804 67.6881 110.057C67.5104 109.865 67.3438 109.684 67.3104 109.653C67.1772 109.542 65.7555 108.007 64.7671 106.917C64.2007 106.281 63.6231 105.654 63.5009 105.513C63.2011 105.19 61.0242 102.544 60.5911 101.969C59.4138 100.424 59.2583 100.02 59.3694 98.8585C59.5693 96.6572 59.6248 96.122 59.7581 95.4151C59.958 94.3347 60.1801 93.8903 60.8465 93.1734C62.4903 91.4264 63.4898 90.2753 66.1776 87.0237C68.4655 84.2468 69.7761 82.6311 69.8538 82.4595C69.876 82.409 70.1093 82.0757 70.3758 81.7223C70.6424 81.3689 70.8645 81.0559 70.8645 81.0256C70.8645 81.0054 71.0089 80.7832 71.1977 80.5409C71.7752 79.7633 72.1973 78.8848 72.1973 78.4809C72.1973 78.2688 72.1306 77.6831 72.0418 77.1883C71.8196 75.9261 71.7086 74.7547 71.8085 74.6134C71.9418 74.4215 72.1417 74.5629 72.2084 74.9264ZM60.5022 77.9962C60.8243 78.077 61.3574 78.2183 61.6795 78.2991C62.0127 78.3799 62.3903 78.4506 62.5236 78.4506C62.6569 78.4506 62.8568 78.491 62.9678 78.5516C63.0789 78.6021 63.5121 78.7131 63.9341 78.804C64.3561 78.8949 64.8226 78.9959 64.9781 79.0262C65.3335 79.1069 65.8666 79.4604 65.8666 79.6219C65.8666 79.6825 65.9444 79.7936 66.0332 79.8643C66.1221 79.935 66.222 80.1369 66.2664 80.3187C66.3331 80.6519 66.1443 81.076 65.489 82.1363C65.3557 82.3585 65.0447 82.8533 64.8115 83.2471C64.3672 83.9843 64.0229 84.5295 63.7786 84.8628C63.712 84.9739 63.6009 85.1556 63.5454 85.2667C63.4898 85.3778 63.3121 85.6403 63.1566 85.8524C63.0012 86.0644 62.8679 86.2664 62.8679 86.3169C62.8679 86.4886 62.0682 87.1348 61.7239 87.2257C61.5351 87.2762 60.8687 87.4882 60.2579 87.6902C59.647 87.8922 59.0028 88.0941 58.814 88.1446C58.6363 88.185 58.3031 88.286 58.0921 88.3567C57.8811 88.4173 57.5257 88.5283 57.3147 88.599C57.1037 88.6697 56.7816 88.7707 56.5928 88.8111C56.2818 88.902 56.2596 88.9424 56.2262 89.4271C56.204 89.7098 56.2707 90.245 56.3706 90.6085C56.4595 90.9821 56.5372 91.3961 56.5372 91.5375C56.5372 91.6789 56.615 91.9313 56.7149 92.103C56.8593 92.3555 56.9371 92.3959 57.1814 92.3555C57.5479 92.305 58.4142 92.1131 59.1139 91.9313C59.4582 91.8506 59.6692 91.8304 59.7137 91.9011C59.8358 92.0727 58.9917 92.6483 58.3365 92.8301C57.9922 92.9209 57.4702 93.0724 57.1814 93.1532C56.9037 93.2441 56.5039 93.2946 56.304 93.2744C55.9597 93.2441 55.9264 93.2037 55.7487 92.6382C55.5376 91.9919 55.3266 91.2548 55.0379 90.1137C54.8379 89.3564 54.6158 88.7808 54.3382 88.2961C54.116 87.9124 54.0161 86.4381 54.1938 86.1351C54.327 85.9231 54.3493 85.9332 55.1267 86.539C56.0708 87.2661 56.2262 87.3267 56.7482 87.2257C57.7589 87.0237 60.2801 86.2361 60.6799 85.9938C60.9131 85.8524 62.8679 83.5904 62.8679 83.4592C62.8679 83.4289 63.0678 83.1461 63.301 82.8129C63.5454 82.4797 63.923 81.894 64.1451 81.5002L64.5561 80.7933L64.345 80.2682C64.1451 79.733 63.9896 79.632 63.09 79.3594C62.9345 79.3089 62.5347 79.1776 62.2015 79.0565C61.424 78.7838 59.7692 78.2486 59.4804 78.188C59.014 78.077 58.9695 78.0467 59.0362 77.9457C59.1361 77.7942 59.8136 77.8245 60.5022 77.9962ZM52.2057 80.9953C52.2057 81.6819 51.8503 83.1966 51.6837 83.1966C51.606 83.1966 51.5393 83.1663 51.5393 83.1158C51.5393 83.0754 51.2617 82.7523 50.9285 82.3888C50.5953 82.0354 50.3176 81.692 50.3176 81.6314C50.3176 81.3285 51.4838 80.5812 51.9614 80.5711C52.1724 80.5711 52.2057 80.6216 52.2057 80.9953ZM62.1237 83.0149C61.9572 83.2572 61.4685 83.8732 61.0464 84.3882C60.4578 85.1051 60.169 85.3778 59.8025 85.5191C59.536 85.6302 59.2805 85.7211 59.2139 85.7211C59.1472 85.7211 58.9362 85.7817 58.7363 85.8625C58.1699 86.0846 57.4368 86.2664 57.3591 86.2058C57.3147 86.1553 57.6701 85.8524 59.0362 84.8224C59.4804 84.4892 60.9131 83.439 61.6351 82.924C62.0349 82.6311 62.3792 82.4292 62.4014 82.4797C62.4236 82.5402 62.3015 82.7725 62.1237 83.0149ZM79.0166 87.2762C79.2276 88.1648 79.2165 88.6495 78.9833 89.5078C78.5946 90.8812 78.2614 92.2747 77.6949 94.8597C77.1507 97.3337 76.9508 98.2931 76.862 98.8989C76.8175 99.1716 76.7287 99.6765 76.662 100.01C76.4954 100.828 76.24 102.373 76.0401 103.857C75.8513 105.291 75.9179 105.654 76.7065 107.654C76.9952 108.361 77.2174 108.896 77.3617 109.199C77.4395 109.36 77.5728 109.684 77.6727 109.906C77.906 110.471 78.5168 111.855 78.7278 112.279C78.8167 112.471 78.95 112.763 79.0277 112.935C79.1055 113.097 79.3942 113.733 79.683 114.349C80.2272 115.53 80.5826 116.712 80.4271 116.853C80.3494 116.924 80.0939 116.661 79.7941 116.166C77.0286 111.602 74.8406 107.644 73.319 104.412C72.6859 103.09 72.6971 102.443 73.3301 100.565C73.3968 100.373 73.4967 100.05 73.5411 99.8582C73.5856 99.6664 73.6744 99.3634 73.7299 99.2019C73.7966 99.0302 73.9299 98.6263 74.0409 98.2931C74.1409 97.9598 74.2853 97.5256 74.363 97.3337C74.4408 97.1419 74.5963 96.7077 74.6962 96.3744C74.8073 96.0412 74.9405 95.6575 75.0072 95.5161C75.0627 95.3747 75.1516 95.1223 75.2071 94.9607C75.2515 94.7891 75.4737 94.2034 75.6958 93.648C75.9179 93.0926 76.14 92.4968 76.1956 92.3353C76.24 92.1636 76.3955 91.7799 76.5288 91.4769C76.662 91.174 76.8064 90.8105 76.862 90.6691C76.9175 90.5277 77.0619 90.1642 77.1952 89.8613C77.3284 89.5583 77.4728 89.1645 77.5172 89.0029C77.5617 88.8313 77.6616 88.6091 77.7172 88.498C77.8615 88.2658 78.4058 86.9833 78.5723 86.4986C78.6834 86.1755 78.8167 86.3977 79.0166 87.2762Z" fill="#222222"/>
<path d="M98.6305 44.7133C98.575 44.8244 98.5194 45.5918 98.5194 46.4704C98.5194 48.5101 98.3417 48.3789 101.129 48.5909C103.051 48.7424 104.506 48.8131 104.972 48.7727C105.305 48.7525 105.405 48.288 105.405 46.8036C105.405 45.4909 105.383 45.3293 105.172 45.0869C104.994 44.8749 104.85 44.8244 104.484 44.8244C104.228 44.8244 103.395 44.7537 102.629 44.6729C101.862 44.5921 100.685 44.5215 99.9966 44.5215C98.8748 44.5215 98.7416 44.5416 98.6305 44.7133ZM46.0083 45.4303C45.4419 45.4808 44.8421 45.5413 44.6866 45.5817C44.5312 45.612 43.887 45.6827 43.2539 45.7332C41.6213 45.8645 41.6546 45.8443 41.6546 46.9955C41.6546 47.5407 41.699 47.975 41.7657 48.0052C41.8767 48.0658 42.5431 48.0052 45.2086 47.7023C45.9083 47.6215 46.7191 47.5508 46.9968 47.5508C47.3522 47.5508 47.6076 47.4802 47.8075 47.3388C48.0741 47.1469 48.0963 47.0762 48.0963 46.3896C48.0963 45.2687 48.1074 45.2788 46.0083 45.4303Z" fill="#222222"/>
</g>
<defs>
<clipPath id="clip0_81_106">
<rect width="100" height="100" fill="white" transform="translate(29 32)"/>
</clipPath>
</defs>
</svg>
