<svg width="158" height="158" viewBox="0 0 158 158" fill="none" xmlns="http://www.w3.org/2000/svg">
<circle cx="79" cy="79" r="79" fill="white"/>
<g clip-path="url(#clip0_111_65)">
<path d="M79.3873 110.201C112.2 110.201 138.775 96.5543 138.775 79.7394C138.775 62.9245 112.2 49.2641 79.3873 49.2641C46.5884 49.2641 20 62.9104 20 79.7253C20 96.5402 46.5884 110.201 79.3873 110.201ZM90.5409 95.2305C89.5692 97.512 87.8511 102.427 83.9502 104.37C82.7531 104.934 81.2744 105.229 79.9929 105.272C79.6972 105.314 79.5 105.272 79.4296 105.272C68.4591 105.272 58.2631 103.779 49.7148 101.159C49.6444 101.117 49.4472 101.047 49.4472 101.047C48.5882 100.779 48.1798 100.413 48.1798 99.9624C48.1798 99.5821 48.3628 99.2864 48.6727 98.9907C48.7853 98.878 48.9684 98.7231 49.1937 98.4978C51.1372 96.8501 57.1364 92.5407 68.276 88.2173C72.2192 86.7245 77.12 84.8515 82.2602 83.753C85.3021 83.1756 96.4698 81.4998 90.5409 95.2305ZM120.608 64.544C120.791 64.1638 121.101 63.8399 121.622 63.8399C121.918 63.7976 122.255 63.8821 122.819 64.2483C129.79 68.5436 133.958 73.9091 133.958 79.7253C133.958 90.2452 120.467 99.2582 101.202 103.216C99.9624 103.483 99.1456 103.483 98.8498 103.145C98.6667 102.92 98.5823 102.624 98.8498 102.216C98.9625 101.99 99.1174 101.807 99.3709 101.54C109.877 89.1467 117.89 70.8531 120.129 65.5439C120.27 65.1073 120.439 64.7693 120.608 64.544ZM68.4168 64.1356C69.3885 61.8542 71.1066 56.9393 75.0076 54.9959C76.2046 54.4044 77.6833 54.1368 78.9649 54.0946C79.2606 54.0946 79.4859 54.0946 79.5563 54.0946C90.4846 54.0946 100.695 55.6296 109.229 58.2067C109.299 58.2067 109.496 58.2772 109.567 58.3194C110.356 58.587 110.764 58.9531 110.764 59.4038C110.764 59.8122 110.539 60.0798 110.271 60.3755C110.158 60.4882 109.975 60.6712 109.75 60.8684C107.764 62.5161 101.849 66.8254 90.6677 71.0925C86.7245 72.6276 81.8237 74.4583 76.6834 75.5991C73.6415 76.2046 62.4879 77.8946 68.4168 64.1356ZM57.6575 56.2351C58.8968 55.9676 59.8685 55.9676 60.122 56.3056C60.3051 56.4886 60.3896 56.8266 60.122 57.235C60.0093 57.4604 59.8544 57.6434 59.6291 57.9392C49.1092 70.3321 41.1102 88.6257 38.871 93.8927C38.6879 94.2729 38.533 94.6391 38.3781 94.8644C38.1528 95.2446 37.857 95.5404 37.3641 95.5685C37.0966 95.5685 36.7304 95.4981 36.1249 95.1601C29.1538 90.8649 24.8586 85.4993 24.8586 79.6831C24.9149 69.2054 38.4063 60.1783 57.6575 56.2351Z" fill="#222222"/>
<path d="M79.3873 49.2641C46.5884 49.2641 20 62.8682 20 79.6831C20 96.498 46.5884 110.102 79.3873 110.102C112.2 110.102 138.775 96.4557 138.775 79.6831C138.775 62.8682 112.2 49.2641 79.3873 49.2641ZM120.664 99.554C109.694 105.173 95.0475 108.285 79.4014 108.285C63.7554 108.285 49.1374 105.159 38.1669 99.554C27.6047 94.118 21.8167 87.0907 21.8167 79.7112C21.8167 72.3318 27.6329 65.2904 38.1809 59.8544C49.1515 54.1931 63.7976 51.1231 79.4437 51.1231C95.0897 51.1231 109.722 54.2213 120.706 59.8544C131.283 65.2904 137.071 72.3318 137.071 79.6972C137.071 87.0625 131.24 94.118 120.664 99.554Z" fill="#222222"/>
</g>
<defs>
<clipPath id="clip0_111_65">
<rect width="119" height="119" fill="white" transform="translate(20 20)"/>
</clipPath>
</defs>
</svg>
