<svg width="158" height="158" viewBox="0 0 158 158" fill="none" xmlns="http://www.w3.org/2000/svg">
<circle cx="79" cy="79" r="79" fill="white"/>
<path d="M118.573 58.1193C111.096 43.8023 96.0996 34.0098 78.8088 34.0098C61.5179 34.0098 46.5212 43.8023 39.0441 58.1193H118.573Z" fill="#222222"/>
<path d="M39.0016 99.5196C46.4787 113.879 61.4967 123.693 78.8088 123.693C96.1209 123.693 111.139 113.879 118.616 99.5196H39.0016Z" fill="#222222"/>
<path d="M105.191 73.9444C105.064 73.6046 104.957 73.3497 104.936 73.3497C104.915 73.3497 104.809 73.6258 104.681 73.9444L102.6 79.5098C102.472 79.8497 102.663 80.1046 103.024 80.1046H106.848C107.209 80.1046 107.4 79.8284 107.273 79.5098L105.191 73.9444Z" fill="#222222"/>
<path d="M139.752 61.9853H18.5032C16.379 61.9853 14.6372 63.7271 14.6372 65.8513V73.1373V84.9902V92.2761C14.6372 94.4003 16.379 96.1422 18.5032 96.1422H139.752C141.876 96.1422 143.618 94.4003 143.618 92.2761V84.7353V73.3709V65.8513C143.618 63.7271 141.876 61.9853 139.752 61.9853ZM42.6977 87.9428C42.6977 88.3039 42.4003 88.5801 42.0604 88.5801H34.9232C34.562 88.5801 34.1584 88.3252 34.0098 87.9853L27.7859 74.5817C27.6372 74.2631 27.5098 74.0082 27.5098 74.0294C27.5098 74.0507 27.4885 74.348 27.4885 74.7091L27.4035 87.9428C27.4035 88.3039 27.1062 88.5801 26.7451 88.5801H23.3251C22.964 88.5801 22.6879 88.2827 22.6879 87.9428V69.8235C22.6879 69.4624 22.9852 69.1863 23.3251 69.1863H30.9722C31.3333 69.1863 31.7369 69.4624 31.8643 69.781L37.4509 83.1422C37.5784 83.4608 37.7058 83.4395 37.7058 83.0997V69.8448C37.7058 69.4837 38.0032 69.2075 38.3431 69.2075H42.0392C42.4003 69.2075 42.6764 69.5049 42.6764 69.8448V87.9428H42.6977ZM52.0228 87.9428C52.0228 88.3039 51.7254 88.5801 51.3856 88.5801H47.6895C47.3284 88.5801 47.0522 88.2827 47.0522 87.9428V69.8235C47.0522 69.4624 47.3496 69.1863 47.6895 69.1863H51.3856C51.7467 69.1863 52.0228 69.4837 52.0228 69.8235V87.9428ZM73.7957 82.3137C73.7957 84.9052 71.8839 87.8366 69.4199 88.3252H63.0473H56.3562V84.0555L66.9134 83.9069C68.2303 83.8856 68.3153 83.1209 68.2941 82.5899C68.2941 82.5899 68.549 80.9118 66.7434 80.9118H60.8807C57.3545 80.9118 55.464 78.7026 55.464 74.9216C55.464 69.6111 58.5016 68.9951 63.3872 68.9951C68.2728 68.9951 71.9901 68.9314 71.9901 68.9314L71.9264 73.3284C68.4003 73.3284 65.3415 73.3497 63.3872 73.3497C60.6895 73.3497 60.7107 73.4346 60.7107 75.0278C60.7107 76.451 60.9232 76.451 63.1323 76.451L69.4411 76.5147C73.9444 76.5359 73.7957 82.3137 73.7957 82.3137ZM93.8692 82.3137C93.8692 84.9052 91.9575 87.8366 89.4934 88.3252H83.1209H76.4509V84.0555L87.0081 83.9069C88.3251 83.8856 88.4101 83.1209 88.3888 82.5899C88.3888 82.5899 88.6437 80.9118 86.8382 80.9118H80.9754C77.4493 80.9118 75.5588 78.7026 75.5588 74.9216C75.5588 69.6111 78.5964 68.9951 83.482 68.9951C88.3676 68.9951 92.0849 68.9314 92.0849 68.9314L92.0212 73.3284C88.495 73.3284 85.4362 73.3497 83.482 73.3497C80.7843 73.3497 80.8055 73.4346 80.8055 75.0278C80.8055 76.451 81.0179 76.451 83.2271 76.451L89.5359 76.5147C94.0179 76.5359 93.8692 82.3137 93.8692 82.3137ZM115.175 88.134H111.394C111.033 88.134 110.629 87.8791 110.459 87.5605L109.397 85.3725C109.248 85.0539 108.823 84.799 108.462 84.799H101.453C101.091 84.799 100.667 85.0539 100.518 85.3725L99.3921 87.5605C99.2222 87.8791 98.8186 88.134 98.4575 88.134H94.5702C94.2091 88.134 94.0179 87.8578 94.1454 87.5392L100.858 69.335C100.985 68.9951 101.368 68.7402 101.729 68.7402H108.016C108.377 68.7402 108.76 69.0163 108.887 69.335L115.621 87.5392C115.727 87.8578 115.536 88.134 115.175 88.134ZM137.776 87.9428C137.776 88.3039 137.479 88.5801 137.139 88.5801H130.002C129.64 88.5801 129.237 88.3252 129.088 87.9853L122.864 74.5817C122.716 74.2631 122.588 74.0082 122.588 74.0294C122.588 74.0507 122.567 74.348 122.567 74.7091L122.482 87.9428C122.482 88.3039 122.185 88.5801 121.823 88.5801H118.382C118.021 88.5801 117.745 88.2827 117.745 87.9428V69.8235C117.745 69.4624 118.042 69.1863 118.382 69.1863H126.029C126.39 69.1863 126.794 69.4624 126.922 69.781L132.508 83.1422C132.636 83.4608 132.763 83.4395 132.763 83.0997V69.8448C132.763 69.4837 133.06 69.2075 133.4 69.2075H137.118C137.479 69.2075 137.755 69.5049 137.755 69.8448V87.9428H137.776Z" fill="#222222"/>
</svg>
