<svg xmlns="http://www.w3.org/2000/svg" width="607" height="74" viewBox="0 0 607 74" fill="none"><path d="M92.2168 33.9512V59H83.0762V27.3008H91.6602L92.2168 33.9512ZM91.0449 42.0371L88.7305 42.0957C88.7305 39.8691 88.9941 37.8281 89.5215 35.9727C90.0684 34.0977 90.8594 32.4668 91.8945 31.0801C92.9297 29.6934 94.209 28.6191 95.7324 27.8574C97.2754 27.0957 99.0527 26.7148 101.064 26.7148C102.471 26.7148 103.75 26.9297 104.902 27.3594C106.055 27.7695 107.041 28.4238 107.861 29.3223C108.701 30.2012 109.346 31.3535 109.795 32.7793C110.244 34.1855 110.469 35.875 110.469 37.8477V59H101.328V38.9609C101.328 37.5547 101.152 36.4902 100.801 35.7676C100.469 35.0254 99.9805 34.5176 99.3359 34.2441C98.6914 33.9707 97.9199 33.834 97.0215 33.834C96.0449 33.834 95.1758 34.0488 94.4141 34.4785C93.6719 34.8887 93.0469 35.4648 92.5391 36.207C92.0312 36.9492 91.6504 37.8184 91.3965 38.8145C91.1621 39.8105 91.0449 40.8848 91.0449 42.0371ZM109.531 41.5684L106.631 41.8027C106.631 39.6543 106.885 37.6621 107.393 35.8262C107.9 33.9902 108.662 32.3984 109.678 31.0508C110.693 29.6836 111.953 28.6191 113.457 27.8574C114.98 27.0957 116.748 26.7148 118.76 26.7148C120.244 26.7148 121.592 26.9297 122.803 27.3594C124.033 27.7891 125.088 28.4824 125.967 29.4395C126.865 30.3965 127.559 31.6562 128.047 33.2188C128.535 34.7617 128.779 36.6562 128.779 38.9023V59H119.58V38.9023C119.58 37.5156 119.404 36.4609 119.053 35.7383C118.721 35.0156 118.232 34.5176 117.588 34.2441C116.963 33.9707 116.211 33.834 115.332 33.834C114.355 33.834 113.506 34.0391 112.783 34.4492C112.061 34.8398 111.455 35.3867 110.967 36.0898C110.479 36.7734 110.117 37.584 109.883 38.5215C109.648 39.459 109.531 40.4746 109.531 41.5684ZM149.844 59.5859C147.324 59.5859 145.068 59.1855 143.076 58.3848C141.084 57.584 139.395 56.4805 138.008 55.0742C136.641 53.6484 135.596 52.0078 134.873 50.1523C134.15 48.2969 133.789 46.3145 133.789 44.2051V43.0918C133.789 40.7285 134.121 38.5508 134.785 36.5586C135.449 34.5664 136.416 32.8379 137.686 31.373C138.975 29.8887 140.557 28.7461 142.432 27.9453C144.307 27.125 146.445 26.7148 148.848 26.7148C151.094 26.7148 153.096 27.0859 154.854 27.8281C156.611 28.5508 158.096 29.5957 159.307 30.9629C160.518 32.3105 161.436 33.9414 162.061 35.8555C162.705 37.75 163.027 39.8789 163.027 42.2422V45.9922H137.48V40.1035H154.062V39.4004C154.062 38.2871 153.857 37.3105 153.447 36.4707C153.057 35.6309 152.471 34.9863 151.689 34.5371C150.928 34.0684 149.961 33.834 148.789 33.834C147.676 33.834 146.748 34.0684 146.006 34.5371C145.264 35.0059 144.668 35.6699 144.219 36.5293C143.789 37.3691 143.477 38.3555 143.281 39.4883C143.086 40.6016 142.988 41.8027 142.988 43.0918V44.2051C142.988 45.4355 143.154 46.5586 143.486 47.5742C143.818 48.5898 144.307 49.459 144.951 50.1816C145.596 50.9043 146.377 51.4707 147.295 51.8809C148.213 52.291 149.258 52.4961 150.43 52.4961C151.875 52.4961 153.252 52.2227 154.561 51.6758C155.869 51.1094 157.002 50.2305 157.959 49.0391L162.236 53.9316C161.592 54.8691 160.684 55.7773 159.512 56.6562C158.359 57.5156 156.973 58.2188 155.352 58.7656C153.73 59.3125 151.895 59.5859 149.844 59.5859ZM180.723 52.4668C181.699 52.4668 182.549 52.2812 183.271 51.9102C183.994 51.5391 184.551 51.0215 184.941 50.3574C185.352 49.6738 185.557 48.8535 185.557 47.8965H194.17C194.17 50.2012 193.574 52.2324 192.383 53.9902C191.211 55.748 189.629 57.125 187.637 58.1211C185.645 59.0977 183.398 59.5859 180.898 59.5859C178.438 59.5859 176.289 59.1855 174.453 58.3848C172.617 57.5645 171.084 56.4219 169.854 54.957C168.623 53.4922 167.695 51.793 167.07 49.8594C166.465 47.9062 166.162 45.7969 166.162 43.5312V42.7695C166.162 40.5234 166.465 38.4238 167.07 36.4707C167.695 34.5176 168.623 32.8086 169.854 31.3438C171.084 29.8789 172.607 28.7461 174.424 27.9453C176.26 27.125 178.408 26.7148 180.869 26.7148C183.467 26.7148 185.762 27.2129 187.754 28.209C189.766 29.2051 191.338 30.6406 192.471 32.5156C193.604 34.3711 194.17 36.6074 194.17 39.2246H185.557C185.557 38.209 185.371 37.3008 185 36.5C184.648 35.6797 184.102 35.0352 183.359 34.5664C182.637 34.0781 181.738 33.834 180.664 33.834C179.551 33.834 178.633 34.0781 177.91 34.5664C177.207 35.0352 176.67 35.6895 176.299 36.5293C175.928 37.3691 175.674 38.3262 175.537 39.4004C175.4 40.4551 175.332 41.5781 175.332 42.7695V43.5312C175.332 44.7422 175.4 45.8945 175.537 46.9883C175.674 48.0625 175.928 49.0098 176.299 49.8301C176.689 50.6504 177.236 51.2949 177.939 51.7637C178.643 52.2324 179.57 52.4668 180.723 52.4668ZM215.498 51.4414V37.8477C215.498 36.8906 215.352 36.0703 215.059 35.3867C214.766 34.7031 214.307 34.166 213.682 33.7754C213.057 33.3848 212.246 33.1895 211.25 33.1895C210.41 33.1895 209.678 33.3359 209.053 33.6289C208.447 33.9219 207.979 34.3418 207.646 34.8887C207.334 35.4355 207.178 36.1094 207.178 36.9102H198.037C198.037 35.4844 198.359 34.1562 199.004 32.9258C199.648 31.6953 200.566 30.6113 201.758 29.6738C202.969 28.7363 204.414 28.0137 206.094 27.5059C207.773 26.9785 209.658 26.7148 211.748 26.7148C214.229 26.7148 216.436 27.1348 218.369 27.9746C220.322 28.7949 221.865 30.0352 222.998 31.6953C224.131 33.3359 224.697 35.4062 224.697 37.9062V51.1777C224.697 53.0918 224.805 54.5957 225.02 55.6895C225.254 56.7637 225.586 57.7012 226.016 58.502V59H216.787C216.357 58.082 216.035 56.9492 215.82 55.6016C215.605 54.2344 215.498 52.8477 215.498 51.4414ZM216.641 39.6641L216.699 44.7031H212.158C211.143 44.7031 210.264 44.8301 209.521 45.084C208.799 45.3379 208.213 45.6895 207.764 46.1387C207.314 46.5684 206.982 47.0762 206.768 47.6621C206.572 48.2285 206.475 48.8535 206.475 49.5371C206.475 50.1816 206.631 50.7676 206.943 51.2949C207.256 51.8027 207.686 52.2031 208.232 52.4961C208.779 52.7891 209.414 52.9355 210.137 52.9355C211.328 52.9355 212.344 52.7012 213.184 52.2324C214.043 51.7637 214.707 51.1973 215.176 50.5332C215.645 49.8496 215.879 49.2148 215.879 48.6289L218.076 52.4375C217.725 53.2188 217.295 54.0293 216.787 54.8691C216.279 55.6895 215.635 56.4609 214.854 57.1836C214.072 57.8867 213.125 58.4629 212.012 58.9121C210.918 59.3613 209.6 59.5859 208.057 59.5859C206.064 59.5859 204.258 59.1855 202.637 58.3848C201.016 57.5645 199.717 56.4414 198.74 55.0156C197.783 53.5898 197.305 51.9492 197.305 50.0938C197.305 48.4336 197.607 46.959 198.213 45.6699C198.818 44.3809 199.727 43.2871 200.938 42.3887C202.168 41.4902 203.711 40.8164 205.566 40.3672C207.422 39.8984 209.59 39.6641 212.07 39.6641H216.641ZM239.668 34.0684V59H230.498V27.3008H239.111L239.668 34.0684ZM238.467 42.0371L236.182 42.0957C236.182 39.7129 236.475 37.5742 237.061 35.6797C237.646 33.7852 238.477 32.1738 239.551 30.8457C240.645 29.498 241.943 28.4727 243.447 27.7695C244.971 27.0664 246.65 26.7148 248.486 26.7148C249.971 26.7148 251.328 26.9297 252.559 27.3594C253.789 27.7891 254.844 28.4824 255.723 29.4395C256.621 30.377 257.305 31.627 257.773 33.1895C258.242 34.7324 258.477 36.6367 258.477 38.9023V59H249.277V38.873C249.277 37.5449 249.092 36.5195 248.721 35.7969C248.35 35.0742 247.803 34.5664 247.08 34.2734C246.377 33.9805 245.518 33.834 244.502 33.834C243.428 33.834 242.51 34.0488 241.748 34.4785C240.986 34.8887 240.361 35.4648 239.873 36.207C239.385 36.9492 239.023 37.8184 238.789 38.8145C238.574 39.8105 238.467 40.8848 238.467 42.0371ZM274.092 27.3008V59H264.922V27.3008H274.092ZM264.365 19.0977C264.365 17.7695 264.834 16.6855 265.771 15.8457C266.709 14.9863 267.939 14.5566 269.463 14.5566C270.986 14.5566 272.217 14.9863 273.154 15.8457C274.111 16.6855 274.59 17.7695 274.59 19.0977C274.59 20.4063 274.111 21.4902 273.154 22.3496C272.217 23.1895 270.986 23.6094 269.463 23.6094C267.939 23.6094 266.709 23.1895 265.771 22.3496C264.834 21.4902 264.365 20.4063 264.365 19.0977ZM289.854 33.9512V59H280.713V27.3008H289.297L289.854 33.9512ZM288.682 42.0371L286.367 42.0957C286.367 39.8691 286.631 37.8281 287.158 35.9727C287.705 34.0977 288.496 32.4668 289.531 31.0801C290.566 29.6934 291.846 28.6191 293.369 27.8574C294.912 27.0957 296.689 26.7148 298.701 26.7148C300.107 26.7148 301.387 26.9297 302.539 27.3594C303.691 27.7695 304.678 28.4238 305.498 29.3223C306.338 30.2012 306.982 31.3535 307.432 32.7793C307.881 34.1855 308.105 35.875 308.105 37.8477V59H298.965V38.9609C298.965 37.5547 298.789 36.4902 298.438 35.7676C298.105 35.0254 297.617 34.5176 296.973 34.2441C296.328 33.9707 295.557 33.834 294.658 33.834C293.682 33.834 292.812 34.0488 292.051 34.4785C291.309 34.8887 290.684 35.4648 290.176 36.207C289.668 36.9492 289.287 37.8184 289.033 38.8145C288.799 39.8105 288.682 40.8848 288.682 42.0371ZM307.168 41.5684L304.268 41.8027C304.268 39.6543 304.521 37.6621 305.029 35.8262C305.537 33.9902 306.299 32.3984 307.314 31.0508C308.33 29.6836 309.59 28.6191 311.094 27.8574C312.617 27.0957 314.385 26.7148 316.396 26.7148C317.881 26.7148 319.229 26.9297 320.439 27.3594C321.67 27.7891 322.725 28.4824 323.604 29.4395C324.502 30.3965 325.195 31.6562 325.684 33.2188C326.172 34.7617 326.416 36.6562 326.416 38.9023V59H317.217V38.9023C317.217 37.5156 317.041 36.4609 316.689 35.7383C316.357 35.0156 315.869 34.5176 315.225 34.2441C314.6 33.9707 313.848 33.834 312.969 33.834C311.992 33.834 311.143 34.0391 310.42 34.4492C309.697 34.8398 309.092 35.3867 308.604 36.0898C308.115 36.7734 307.754 37.584 307.52 38.5215C307.285 39.459 307.168 40.4746 307.168 41.5684ZM331.221 43.4727V42.8574C331.221 40.5332 331.553 38.3945 332.217 36.4414C332.881 34.4688 333.857 32.7598 335.146 31.3145C336.436 29.8691 338.018 28.7461 339.893 27.9453C341.768 27.125 343.916 26.7148 346.338 26.7148C348.799 26.7148 350.967 27.125 352.842 27.9453C354.736 28.7461 356.328 29.8691 357.617 31.3145C358.906 32.7598 359.883 34.4688 360.547 36.4414C361.211 38.3945 361.543 40.5332 361.543 42.8574V43.4727C361.543 45.7773 361.211 47.916 360.547 49.8887C359.883 51.8418 358.906 53.5508 357.617 55.0156C356.328 56.4609 354.746 57.584 352.871 58.3848C350.996 59.1855 348.838 59.5859 346.396 59.5859C343.975 59.5859 341.816 59.1855 339.922 58.3848C338.027 57.584 336.436 56.4609 335.146 55.0156C333.857 53.5508 332.881 51.8418 332.217 49.8887C331.553 47.916 331.221 45.7773 331.221 43.4727ZM340.391 42.8574V43.4727C340.391 44.7227 340.488 45.8945 340.684 46.9883C340.898 48.082 341.24 49.0391 341.709 49.8594C342.178 50.6797 342.793 51.3242 343.555 51.793C344.336 52.2422 345.283 52.4668 346.396 52.4668C347.51 52.4668 348.447 52.2422 349.209 51.793C349.971 51.3242 350.586 50.6797 351.055 49.8594C351.523 49.0391 351.855 48.082 352.051 46.9883C352.266 45.8945 352.373 44.7227 352.373 43.4727V42.8574C352.373 41.627 352.266 40.4746 352.051 39.4004C351.855 38.3066 351.523 37.3398 351.055 36.5C350.586 35.6602 349.961 35.0059 349.18 34.5371C348.418 34.0684 347.471 33.834 346.338 33.834C345.244 33.834 344.316 34.0684 343.555 34.5371C342.793 35.0059 342.178 35.6602 341.709 36.5C341.24 37.3398 340.898 38.3066 340.684 39.4004C340.488 40.4746 340.391 41.627 340.391 42.8574ZM342.09 23.1113L347.891 14H357.676L349.561 23.1113H342.09ZM376.982 52.5254L383.604 27.3008H393.213L382.695 59H376.924L376.982 52.5254ZM372.705 27.3008L379.297 52.5547L379.355 59H373.584L363.066 27.3008H372.705ZM406.221 27.3008V59H397.051V27.3008H406.221ZM396.494 19.0977C396.494 17.7695 396.963 16.6855 397.9 15.8457C398.838 14.9863 400.068 14.5566 401.592 14.5566C403.115 14.5566 404.346 14.9863 405.283 15.8457C406.24 16.6855 406.719 17.7695 406.719 19.0977C406.719 20.4063 406.24 21.4902 405.283 22.3496C404.346 23.1895 403.115 23.6094 401.592 23.6094C400.068 23.6094 398.838 23.1895 397.9 22.3496C396.963 21.4902 396.494 20.4063 396.494 19.0977ZM422.451 14V59H413.281V14H422.451Z" fill="black"></path><path d="M485.156 36.0488H474.346L474.287 31.5078H484.102C485.723 31.5078 487.139 31.2344 488.35 30.6875C489.561 30.1406 490.498 29.3594 491.162 28.3438C491.846 27.3086 492.188 26.0781 492.188 24.6523C492.188 23.0898 491.885 21.8203 491.279 20.8438C490.693 19.8477 489.785 19.125 488.555 18.6758C487.344 18.207 485.801 17.9727 483.926 17.9727H475.605V56H469.951V13.3438H483.926C486.113 13.3438 488.066 13.5684 489.785 14.0176C491.504 14.4473 492.959 15.1309 494.15 16.0684C495.361 16.9863 496.279 18.1582 496.904 19.584C497.529 21.0098 497.842 22.7188 497.842 24.7109C497.842 26.4688 497.393 28.0605 496.494 29.4863C495.596 30.8926 494.346 32.0449 492.744 32.9434C491.162 33.8418 489.307 34.418 487.178 34.6719L485.156 36.0488ZM484.893 56H472.119L475.312 51.4004H484.893C486.689 51.4004 488.213 51.0879 489.463 50.4629C490.732 49.8379 491.699 48.959 492.363 47.8262C493.027 46.6738 493.359 45.3164 493.359 43.7539C493.359 42.1719 493.076 40.8047 492.51 39.6523C491.943 38.5 491.055 37.6113 489.844 36.9863C488.633 36.3613 487.07 36.0488 485.156 36.0488H477.1L477.158 31.5078H488.174L489.375 33.1484C491.426 33.3242 493.164 33.9102 494.59 34.9062C496.016 35.8828 497.1 37.1328 497.842 38.6562C498.604 40.1797 498.984 41.8594 498.984 43.6953C498.984 46.3516 498.398 48.5977 497.227 50.4336C496.074 52.25 494.443 53.6367 492.334 54.5938C490.225 55.5312 487.744 56 484.893 56ZM512.402 11V56H506.953V11H512.402ZM519.668 40.502V39.8281C519.668 37.543 520 35.4238 520.664 33.4707C521.328 31.498 522.285 29.7891 523.535 28.3438C524.785 26.8789 526.299 25.7461 528.076 24.9453C529.854 24.125 531.846 23.7148 534.053 23.7148C536.279 23.7148 538.281 24.125 540.059 24.9453C541.855 25.7461 543.379 26.8789 544.629 28.3438C545.898 29.7891 546.865 31.498 547.529 33.4707C548.193 35.4238 548.525 37.543 548.525 39.8281V40.502C548.525 42.7871 548.193 44.9062 547.529 46.8594C546.865 48.8125 545.898 50.5215 544.629 51.9863C543.379 53.4316 541.865 54.5645 540.088 55.3848C538.33 56.1855 536.338 56.5859 534.111 56.5859C531.885 56.5859 529.883 56.1855 528.105 55.3848C526.328 54.5645 524.805 53.4316 523.535 51.9863C522.285 50.5215 521.328 48.8125 520.664 46.8594C520 44.9062 519.668 42.7871 519.668 40.502ZM525.088 39.8281V40.502C525.088 42.084 525.273 43.5781 525.645 44.9844C526.016 46.3711 526.572 47.6016 527.314 48.6758C528.076 49.75 529.023 50.5996 530.156 51.2246C531.289 51.8301 532.607 52.1328 534.111 52.1328C535.596 52.1328 536.895 51.8301 538.008 51.2246C539.141 50.5996 540.078 49.75 540.82 48.6758C541.562 47.6016 542.119 46.3711 542.49 44.9844C542.881 43.5781 543.076 42.084 543.076 40.502V39.8281C543.076 38.2656 542.881 36.791 542.49 35.4043C542.119 33.998 541.553 32.7578 540.791 31.6836C540.049 30.5898 539.111 29.7305 537.979 29.1055C536.865 28.4805 535.557 28.168 534.053 28.168C532.568 28.168 531.26 28.4805 530.127 29.1055C529.014 29.7305 528.076 30.5898 527.314 31.6836C526.572 32.7578 526.016 33.998 525.645 35.4043C525.273 36.791 525.088 38.2656 525.088 39.8281ZM575.859 24.3008H580.781V55.3262C580.781 58.1191 580.215 60.502 579.082 62.4746C577.949 64.4473 576.367 65.9414 574.336 66.957C572.324 67.9922 570 68.5098 567.363 68.5098C566.27 68.5098 564.98 68.334 563.496 67.9824C562.031 67.6504 560.586 67.0742 559.16 66.2539C557.754 65.4531 556.572 64.3691 555.615 63.002L558.457 59.7793C559.785 61.3809 561.172 62.4941 562.617 63.1191C564.082 63.7441 565.527 64.0566 566.953 64.0566C568.672 64.0566 570.156 63.7344 571.406 63.0898C572.656 62.4453 573.623 61.4883 574.307 60.2188C575.01 58.9688 575.361 57.4258 575.361 55.5898V31.2734L575.859 24.3008ZM554.033 40.502V39.8867C554.033 37.4648 554.316 35.2676 554.883 33.2949C555.469 31.3027 556.299 29.5938 557.373 28.168C558.467 26.7422 559.785 25.6484 561.328 24.8867C562.871 24.1055 564.609 23.7148 566.543 23.7148C568.535 23.7148 570.273 24.0664 571.758 24.7695C573.262 25.4531 574.531 26.459 575.566 27.7871C576.621 29.0957 577.451 30.6777 578.057 32.5332C578.662 34.3887 579.082 36.4883 579.316 38.832V41.5273C579.102 43.8516 578.682 45.9414 578.057 47.7969C577.451 49.6523 576.621 51.2344 575.566 52.543C574.531 53.8516 573.262 54.8574 571.758 55.5605C570.254 56.2441 568.496 56.5859 566.484 56.5859C564.59 56.5859 562.871 56.1855 561.328 55.3848C559.805 54.584 558.496 53.4609 557.402 52.0156C556.309 50.5703 555.469 48.8711 554.883 46.918C554.316 44.9453 554.033 42.8066 554.033 40.502ZM559.453 39.8867V40.502C559.453 42.084 559.609 43.5684 559.922 44.9551C560.254 46.3418 560.752 47.5625 561.416 48.6172C562.1 49.6719 562.969 50.502 564.023 51.1074C565.078 51.6934 566.338 51.9863 567.803 51.9863C569.6 51.9863 571.084 51.6055 572.256 50.8438C573.428 50.082 574.355 49.0762 575.039 47.8262C575.742 46.5762 576.289 45.2188 576.68 43.7539V36.6934C576.465 35.6191 576.133 34.584 575.684 33.5879C575.254 32.5723 574.688 31.6738 573.984 30.8926C573.301 30.0918 572.451 29.457 571.436 28.9883C570.42 28.5195 569.229 28.2852 567.861 28.2852C566.377 28.2852 565.098 28.5977 564.023 29.2227C562.969 29.8281 562.1 30.668 561.416 31.7422C560.752 32.7969 560.254 34.0273 559.922 35.4336C559.609 36.8203 559.453 38.3047 559.453 39.8867Z" fill="black"></path><path fill-rule="evenodd" clip-rule="evenodd" d="M31.154 9.08434C31.1655 8.78818 31.111 8.49317 30.9944 8.22049C30.8777 7.94781 30.7019 7.70424 30.4795 7.50728C30.257 7.31031 29.9937 7.16484 29.7081 7.08133C29.4225 6.99781 29.1219 6.97831 28.8278 7.02424C20.4297 8.3306 12.8225 12.7086 7.49335 19.3027C7.30875 19.5337 7.17744 19.8023 7.10852 20.0895C7.03956 20.3767 7.03475 20.6754 7.09454 20.9647C7.15427 21.2538 7.27704 21.5264 7.45425 21.7632C7.63142 22 7.85865 22.1951 8.11988 22.3348C15.0209 25.9859 21.4655 28.8537 25.8023 26.3632C30.1391 23.8726 30.8723 16.8267 31.154 9.08434ZM60.5687 21.7651C60.3904 22.0018 60.1622 22.1963 59.8994 22.3348C53.0227 25.9666 46.5442 28.8584 42.2025 26.3631C37.8609 23.8678 37.1373 16.875 36.8604 9.09884C36.8506 8.80332 36.9063 8.50925 37.0236 8.2376C37.1409 7.96594 37.3168 7.72336 37.5389 7.52711C37.761 7.33087 38.0238 7.18581 38.3086 7.10223C38.5934 7.01865 38.8932 6.99862 39.1867 7.04356C47.5855 8.33888 55.196 12.7109 60.5259 19.3026C60.7124 19.5331 60.845 19.8016 60.9149 20.0892C60.9849 20.3767 60.9902 20.676 60.9305 20.9657C60.8702 21.2554 60.7469 21.5284 60.5687 21.7651ZM62.7453 53.7346C62.9969 53.8915 63.28 53.9914 63.5743 54.027C63.8691 54.0627 64.1678 54.0334 64.4495 53.941C64.7316 53.8487 64.9895 53.6957 65.2051 53.4928C65.4212 53.29 65.5893 53.0423 65.698 52.7674C68.7673 44.8754 68.7673 36.1267 65.698 28.2347C65.5897 27.9599 65.4222 27.7122 65.2071 27.5094C64.9914 27.3065 64.734 27.1535 64.4524 27.0611C64.1707 26.9688 63.8725 26.9394 63.5782 26.975C63.2839 27.0107 63.0013 27.1105 62.7502 27.2675C56.1163 31.3683 50.3954 35.5079 50.3954 40.4793C50.3954 45.4506 56.1503 49.6192 62.7453 53.7346ZM5.25462 27.2868C5.0032 27.1298 4.72018 27.03 4.42562 26.9943C4.13105 26.9586 3.83212 26.988 3.55025 27.0803C3.26837 27.1726 3.01039 27.3257 2.79463 27.5285C2.57886 27.7314 2.41063 27.9791 2.30187 28.254C-0.767289 36.146 -0.767289 44.8947 2.30187 52.7867C2.41063 53.0616 2.57886 53.3093 2.79463 53.5121C3.01039 53.715 3.26837 53.868 3.55025 53.9603C3.83212 54.0527 4.13105 54.0821 4.42562 54.0464C4.72018 54.0107 5.0032 53.9108 5.25462 53.7539C11.8788 49.6337 17.5948 45.5086 17.5997 40.5228C17.6045 35.5369 11.8545 31.3829 5.25462 27.2868ZM8.10041 58.6672C7.83787 58.8055 7.60942 59.0004 7.43119 59.2368C7.253 59.4733 7.12955 59.7465 7.06972 60.0362C7.00984 60.3259 7.01499 60.6252 7.08487 60.913C7.15476 61.2002 7.28773 61.4691 7.47402 61.6993C12.811 68.2979 20.4329 72.6706 28.8424 73.9584C29.1356 74.0034 29.4353 73.9835 29.7199 73.8999C30.0045 73.8162 30.267 73.6711 30.4888 73.4748C30.7105 73.2785 30.886 73.0357 31.0026 72.7639C31.1193 72.4926 31.1743 72.1986 31.1637 71.9031C30.8917 64.1269 30.1633 57.1342 25.8216 54.6389C21.4799 52.1435 14.9771 55.0354 8.10041 58.6672ZM37.0103 72.7813C36.8936 72.5091 36.8391 72.2136 36.8508 71.9176C37.1276 64.1753 37.8561 57.1293 42.1978 54.6388C46.5395 52.1483 52.9839 55.016 59.88 58.6672C60.1418 58.8064 60.3696 59.0013 60.5473 59.2378C60.725 59.4748 60.8484 59.7475 60.9081 60.0367C60.9679 60.3264 60.963 60.6252 60.8936 60.9125C60.8241 61.2002 60.692 61.4686 60.5065 61.6993C55.1804 68.2945 47.5743 72.673 39.177 73.9777C38.883 74.0213 38.583 74.0009 38.2978 73.9173C38.0126 73.8336 37.7492 73.6895 37.5258 73.4941C37.3031 73.2973 37.127 73.0541 37.0103 72.7813ZM42.0907 40.5034C42.0907 44.953 38.4684 48.5601 34 48.5601C29.5315 48.5601 25.9091 44.953 25.9091 40.5034C25.9091 36.0538 29.5315 32.4468 34 32.4468C38.4684 32.4468 42.0907 36.0538 42.0907 40.5034Z" fill="url(#paint0_linear_107_20)"></path><line x1="443.499" y1="2.94069" x2="444.5" y2="61.9407" stroke="black" stroke-width="7"></line><defs><linearGradient id="paint0_linear_107_20" x1="34" y1="74" x2="34.2928" y2="7.00128" gradientUnits="userSpaceOnUse"><stop stop-color="#005DF9"></stop><stop offset="1" stop-color="#48B7FF"></stop></linearGradient></defs></svg>